<svg width="152" height="38" viewBox="0 0 152 38" fill="none" xmlns="http://www.w3.org/2000/svg">
<path d="M133.539 0.0555994C133.255 0.290373 133.421 1.87507 133.539 2.63807C127.627 1.28437 122.403 2.92241 120.53 3.91065C112.652 7.82647 106.275 8.80543 104.071 8.80543C100.385 9.14107 88.0204 6.5445 82.299 5.20427C69.2713 3.1065 61.3125 4.54286 58.9615 5.52326C45.6157 10.9415 39.0683 12.3082 37.8727 12.5578L37.8531 12.5619C29.0259 14.0166 26.5041 13.8322 22.8178 13.2376C17.4606 12.3735 11.1197 9.15268 8.19727 7.26741C3.95832 5.04028 1.47351 7.39282 0.76097 8.84747C-1.10054 12.0678 0.894272 14.6912 2.12436 15.6003C7.32105 19.2647 9.88679 19.8293 13.1448 20.6483C16.4028 21.4673 21.4286 21.8187 25.3982 21.8187C34.6423 21.8187 41.9284 18.1342 44.6712 17.1372L53.6533 12.9325L56.0079 11.8055C62.4175 8.84747 68.2876 9.60152 71.3074 10.0779C70.3764 10.4408 65.7329 15.9301 63.5275 18.6294C62.4324 19.827 59.8439 21.9387 58.6865 22.8449C54.8352 25.714 52.3638 26.2114 51.6095 26.1015C48.6603 25.7335 47.5523 26.3218 47.367 26.6619C45.8572 28.9627 40.2412 32.7062 37.6219 34.2903C36.358 34.943 36.3295 36.1804 36.4732 36.7175C36.8345 38.1371 40.2625 38.0841 41.9313 37.8801C44.9515 37.5375 47.895 35.5209 48.9891 34.5555C51.9271 32.3689 54.6177 31.8631 55.5957 31.8835L66.491 31.7815C70.1514 31.4715 74.3355 28.9192 75.9699 27.6818C77.9394 25.5768 81.7281 23.0517 83.3763 22.0523C84.7058 21.1875 87.5414 21.3656 88.7931 21.5628C90.4018 21.9054 92.8286 23.2693 93.8409 23.9084C95.4497 24.8548 98.9599 25.8929 100.514 26.2937C107.586 27.4483 114.714 26.421 117.394 25.763C117.418 26.9838 119.018 27.7194 119.815 27.9346C121.539 27.2538 129.059 25.8918 132.631 26.0777C138.396 26.0777 145.628 34.1169 148.334 37.6189C152.113 38.9101 150.892 36.555 150.515 35.9557C140.547 20.0965 136.88 21.4892 131.8 19.6883C132.059 17.9275 133.344 16.4308 133.954 15.9026C134.568 15.6678 136.592 15.8048 137.526 15.9026C139.392 15.9261 142.909 17.4384 144.435 18.1916C148.875 17.1352 150.338 14.1516 150.515 12.7919C149.476 11.9702 148.055 9.49533 147.474 8.36061C145.655 4.0643 141.933 3.00979 140.3 3.01957C138.912 0.613175 133.893 -0.237868 133.539 0.0555994Z" fill="url(#paint0_linear_1_14)"/>
<defs>
<linearGradient id="paint0_linear_1_14" x1="165.227" y1="20.3458" x2="-11.1654" y2="7.19256" gradientUnits="userSpaceOnUse">
<stop stop-color="#E0BD23"/>
<stop offset="1" stop-color="#F89A0E"/>
</linearGradient>
</defs>
</svg>
