<svg width="1228" height="287" viewBox="0 0 1228 287" fill="none" xmlns="http://www.w3.org/2000/svg">
<path d="M442.429 17.6848C441.701 18.7217 443.669 23.8761 444.745 26.3237C423.945 27.0417 408.108 37.157 402.79 42.125C380.201 62.2154 359.951 71.1498 352.65 73.1057C340.74 77.4994 297.454 79.7849 277.299 80.3785C232.262 84.9215 207.183 96.7892 200.274 102.155C160.918 132.124 140.453 142.506 136.716 144.402L136.654 144.433C108.716 157.133 100.197 158.754 87.4519 160.036C68.9306 161.899 45.0387 156.751 33.668 153.038C17.6296 149.349 11.5062 159.424 10.4493 164.922C7.16846 177.347 16.1276 184.353 21.0173 186.303C41.5164 193.95 50.5219 193.562 62.0488 193.411C73.5756 193.259 90.5397 189.975 103.69 186.453C134.313 178.249 155.149 159.458 163.341 153.689L189.329 131.652L196.119 125.792C214.701 110.209 234.823 107.522 245.254 106.436C242.495 108.476 232.031 130.961 227.144 141.948C224.59 146.926 217.907 156.287 214.885 160.346C204.698 173.362 196.956 177.219 194.359 177.52C184.259 178.906 181.116 181.858 180.807 183.16C177.867 192.196 162.617 209.703 155.36 217.327C151.758 220.632 152.772 224.797 153.73 226.466C156.199 230.895 167.507 227.675 172.853 225.512C182.551 221.686 190.495 212.328 193.254 208.127C201.028 198.205 209.488 194.125 212.746 193.326L248.748 183.316C260.596 179.031 272.169 166.78 276.475 161.19C281.113 152.4 291.401 140.591 295.966 135.785C299.595 131.712 309.148 129.791 313.471 129.34C319.108 129.059 328.369 131.468 332.296 132.708C338.473 134.446 351.032 134.804 356.539 134.766C381.002 132.353 403.695 122.59 411.984 118.011C413.156 122.074 419.117 123.115 421.95 123.127C427.051 119.32 452.326 113.272 464.326 110.724C483.898 103.966 513 120.903 525.105 130.217C538.781 131.183 540.598 125.19 539.798 122.072C520.766 82.979 474.844 81.0057 454.262 84.9058C453.544 78.7851 456.459 72.638 458.007 70.3295C459.831 68.9993 466.656 67.662 469.84 67.1597C476.042 65.5826 489.049 67.5206 494.777 68.6868C508.538 61.2127 510.714 49.9327 510.082 45.227C505.903 43.4004 498.976 36.3824 496.036 33.1017C486.159 20.3435 472.885 20.1185 467.482 21.6008C460.728 14.7822 443.34 16.3887 442.429 17.6848Z" fill="url(#paint0_linear_2_18)"/>
<path d="M294.131 243L308.619 155.727H367.426L364.869 170.94H324.514L321.105 191.736H358.435L355.878 206.949H318.548L315.139 227.787H355.665L353.108 243H294.131ZM399.908 155.727L385.42 243H367.266L381.755 155.727H399.908ZM400.089 243L410.999 177.545H428.257L426.382 189.094H427.107C429.095 185.259 431.865 182.233 435.416 180.017C438.996 177.801 443.016 176.693 447.476 176.693C451.908 176.693 455.516 177.815 458.3 180.06C461.112 182.276 462.732 185.287 463.158 189.094H463.839C465.771 185.344 468.683 182.347 472.575 180.102C476.467 177.83 480.814 176.693 485.615 176.693C491.666 176.693 496.297 178.639 499.507 182.531C502.717 186.423 503.726 191.906 502.533 198.98L495.203 243H477.05L483.868 202.56C484.408 198.895 483.868 196.168 482.249 194.378C480.629 192.56 478.371 191.651 475.473 191.651C472.178 191.651 469.436 192.702 467.249 194.804C465.061 196.878 463.712 199.619 463.2 203.028L456.425 243H438.825L445.729 202.176C446.212 198.937 445.686 196.381 444.152 194.506C442.646 192.602 440.388 191.651 437.376 191.651C435.388 191.651 433.499 192.162 431.709 193.185C429.947 194.179 428.456 195.585 427.234 197.403C426.013 199.193 425.217 201.295 424.848 203.71L418.2 243H400.089ZM539.074 244.278C532.369 244.278 526.815 242.915 522.412 240.188C518.009 237.432 514.912 233.54 513.122 228.511C511.361 223.455 511.063 217.474 512.227 210.571C513.364 203.838 515.651 197.929 519.088 192.844C522.554 187.759 526.901 183.795 532.128 180.955C537.355 178.114 543.179 176.693 549.599 176.693C553.918 176.693 557.824 177.389 561.318 178.781C564.841 180.145 567.767 182.219 570.097 185.003C572.426 187.759 574.017 191.21 574.869 195.358C575.75 199.506 575.736 204.364 574.827 209.932L574.017 214.918H518.79L520.537 203.668H558.719C559.145 201.054 558.974 198.739 558.207 196.722C557.44 194.705 556.162 193.128 554.372 191.991C552.582 190.827 550.381 190.244 547.767 190.244C545.097 190.244 542.597 190.898 540.267 192.205C537.938 193.511 535.977 195.23 534.386 197.361C532.824 199.463 531.815 201.75 531.361 204.222L529.358 215.386C528.79 218.824 528.903 221.679 529.699 223.952C530.523 226.224 531.943 227.929 533.96 229.065C535.977 230.173 538.534 230.727 541.631 230.727C543.648 230.727 545.537 230.443 547.298 229.875C549.088 229.307 550.679 228.469 552.071 227.361C553.463 226.224 554.599 224.818 555.48 223.142L572.057 224.25C570.523 228.284 568.193 231.807 565.068 234.818C561.943 237.801 558.179 240.131 553.776 241.807C549.401 243.455 544.5 244.278 539.074 244.278ZM581.251 243L592.16 177.545H609.759L607.842 188.966H608.523C610.398 184.903 612.913 181.835 616.066 179.761C619.248 177.659 622.671 176.608 626.336 176.608C627.245 176.608 628.197 176.665 629.191 176.778C630.214 176.864 631.123 177.006 631.918 177.205L629.191 193.355C628.396 193.071 627.259 192.844 625.782 192.673C624.333 192.474 622.955 192.375 621.648 192.375C619.006 192.375 616.549 192.957 614.276 194.122C612.004 195.259 610.086 196.849 608.523 198.895C606.989 200.94 605.981 203.298 605.498 205.969L599.404 243H581.251ZM662.046 155.727L660.555 164.932C660.129 167.545 659.177 170.216 657.7 172.943C656.251 175.642 654.489 178.199 652.415 180.614C650.342 183 648.183 185.031 645.938 186.707L638.609 181.977C640.398 179.733 642.06 177.247 643.594 174.52C645.157 171.793 646.237 168.625 646.833 165.017L648.41 155.727H662.046ZM713.737 196.21L697.245 197.233C697.16 195.784 696.762 194.491 696.052 193.355C695.37 192.19 694.362 191.267 693.026 190.585C691.719 189.903 690.072 189.562 688.083 189.562C685.1 189.562 682.444 190.244 680.114 191.608C677.785 192.972 676.464 194.719 676.151 196.849C675.896 198.213 676.251 199.364 677.217 200.301C678.183 201.239 680.129 202.034 683.055 202.688L694.56 205.074C700.697 206.381 705.129 208.554 707.856 211.594C710.612 214.634 711.592 218.611 710.796 223.526C710.086 227.702 708.254 231.352 705.299 234.477C702.344 237.574 698.594 239.989 694.049 241.722C689.504 243.426 684.461 244.278 678.921 244.278C670.029 244.278 663.268 242.46 658.637 238.824C654.006 235.187 651.776 230.259 651.947 224.037L669.674 223.099C669.816 225.77 670.754 227.787 672.487 229.151C674.219 230.486 676.592 231.168 679.603 231.196C682.984 231.253 685.853 230.557 688.211 229.108C690.597 227.631 691.947 225.841 692.259 223.739C692.487 222.261 692.06 221.068 690.981 220.159C689.93 219.25 687.998 218.497 685.185 217.901L674.276 215.642C668.083 214.364 663.637 212.077 660.938 208.781C658.239 205.486 657.316 201.295 658.168 196.21C658.85 192.148 660.54 188.668 663.239 185.77C665.967 182.844 669.475 180.599 673.765 179.037C678.083 177.474 682.955 176.693 688.381 176.693C696.876 176.693 703.268 178.44 707.558 181.935C711.876 185.429 713.935 190.187 713.737 196.21ZM747.06 243L761.549 155.727H820.356L817.799 170.94H777.444L774.035 191.736H811.364L808.808 206.949H771.478L768.069 227.787H808.594L806.038 243H747.06ZM846.276 177.545L854.457 200.429L870.608 177.545H889.23L864.812 210.273L878.832 243H860.295L851.134 220.372L834.685 243H815.935L840.821 210.273L827.526 177.545H846.276ZM885.139 267.545L900.224 177.545H918.122L916.29 188.54H917.099C918.179 186.778 919.614 184.989 921.403 183.17C923.222 181.324 925.48 179.79 928.179 178.568C930.878 177.318 934.045 176.693 937.682 176.693C942.483 176.693 946.673 177.943 950.253 180.443C953.832 182.915 956.418 186.651 958.009 191.651C959.628 196.622 959.812 202.858 958.562 210.358C957.369 217.659 955.168 223.824 951.957 228.852C948.776 233.852 944.955 237.645 940.494 240.23C936.063 242.787 931.361 244.065 926.389 244.065C922.866 244.065 919.969 243.483 917.696 242.318C915.452 241.153 913.705 239.69 912.455 237.929C911.205 236.139 910.324 234.335 909.812 232.517H909.131L903.335 267.545H885.139ZM912.54 210.273C911.915 214.165 911.886 217.56 912.455 220.457C913.051 223.355 914.244 225.614 916.034 227.233C917.824 228.824 920.182 229.619 923.108 229.619C926.063 229.619 928.69 228.81 930.991 227.19C933.293 225.543 935.21 223.27 936.744 220.372C938.278 217.446 939.372 214.08 940.026 210.273C940.622 206.494 940.636 203.17 940.068 200.301C939.5 197.432 938.335 195.187 936.574 193.568C934.813 191.949 932.426 191.139 929.415 191.139C926.489 191.139 923.861 191.92 921.531 193.483C919.23 195.045 917.313 197.261 915.778 200.131C914.244 203 913.165 206.381 912.54 210.273ZM965.157 243L976.066 177.545H993.665L991.748 188.966H992.43C994.305 184.903 996.819 181.835 999.972 179.761C1003.15 177.659 1006.58 176.608 1010.24 176.608C1011.15 176.608 1012.1 176.665 1013.1 176.778C1014.12 176.864 1015.03 177.006 1015.82 177.205L1013.1 193.355C1012.3 193.071 1011.17 192.844 1009.69 192.673C1008.24 192.474 1006.86 192.375 1005.55 192.375C1002.91 192.375 1000.46 192.957 998.183 194.122C995.91 195.259 993.992 196.849 992.43 198.895C990.896 200.94 989.887 203.298 989.404 205.969L983.31 243H965.157ZM1040.87 244.278C1034.17 244.278 1028.61 242.915 1024.21 240.188C1019.81 237.432 1016.71 233.54 1014.92 228.511C1013.16 223.455 1012.86 217.474 1014.02 210.571C1015.16 203.838 1017.45 197.929 1020.88 192.844C1024.35 187.759 1028.7 183.795 1033.92 180.955C1039.15 178.114 1044.98 176.693 1051.4 176.693C1055.71 176.693 1059.62 177.389 1063.12 178.781C1066.64 180.145 1069.56 182.219 1071.89 185.003C1074.22 187.759 1075.81 191.21 1076.67 195.358C1077.55 199.506 1077.53 204.364 1076.62 209.932L1075.81 214.918H1020.59L1022.33 203.668H1060.52C1060.94 201.054 1060.77 198.739 1060 196.722C1059.24 194.705 1057.96 193.128 1056.17 191.991C1054.38 190.827 1052.18 190.244 1049.56 190.244C1046.89 190.244 1044.39 190.898 1042.06 192.205C1039.73 193.511 1037.77 195.23 1036.18 197.361C1034.62 199.463 1033.61 201.75 1033.16 204.222L1031.15 215.386C1030.59 218.824 1030.7 221.679 1031.5 223.952C1032.32 226.224 1033.74 227.929 1035.76 229.065C1037.77 230.173 1040.33 230.727 1043.43 230.727C1045.44 230.727 1047.33 230.443 1049.1 229.875C1050.88 229.307 1052.48 228.469 1053.87 227.361C1055.26 226.224 1056.4 224.818 1057.28 223.142L1073.85 224.25C1072.32 228.284 1069.99 231.807 1066.87 234.818C1063.74 237.801 1059.98 240.131 1055.57 241.807C1051.2 243.455 1046.3 244.278 1040.87 244.278ZM1145.22 196.21L1128.73 197.233C1128.64 195.784 1128.25 194.491 1127.54 193.355C1126.85 192.19 1125.85 191.267 1124.51 190.585C1123.2 189.903 1121.56 189.562 1119.57 189.562C1116.58 189.562 1113.93 190.244 1111.6 191.608C1109.27 192.972 1107.95 194.719 1107.64 196.849C1107.38 198.213 1107.74 199.364 1108.7 200.301C1109.67 201.239 1111.61 202.034 1114.54 202.688L1126.04 205.074C1132.18 206.381 1136.61 208.554 1139.34 211.594C1142.1 214.634 1143.08 218.611 1142.28 223.526C1141.57 227.702 1139.74 231.352 1136.78 234.477C1133.83 237.574 1130.08 239.989 1125.53 241.722C1120.99 243.426 1115.95 244.278 1110.41 244.278C1101.51 244.278 1094.75 242.46 1090.12 238.824C1085.49 235.187 1083.26 230.259 1083.43 224.037L1101.16 223.099C1101.3 225.77 1102.24 227.787 1103.97 229.151C1105.7 230.486 1108.08 231.168 1111.09 231.196C1114.47 231.253 1117.34 230.557 1119.7 229.108C1122.08 227.631 1123.43 225.841 1123.74 223.739C1123.97 222.261 1123.54 221.068 1122.47 220.159C1121.41 219.25 1119.48 218.497 1116.67 217.901L1105.76 215.642C1099.57 214.364 1095.12 212.077 1092.42 208.781C1089.72 205.486 1088.8 201.295 1089.65 196.21C1090.33 192.148 1092.02 188.668 1094.72 185.77C1097.45 182.844 1100.96 180.599 1105.25 179.037C1109.57 177.474 1114.44 176.693 1119.87 176.693C1128.36 176.693 1134.75 178.44 1139.04 181.935C1143.36 185.429 1145.42 190.187 1145.22 196.21ZM1212.6 196.21L1196.11 197.233C1196.03 195.784 1195.63 194.491 1194.92 193.355C1194.24 192.19 1193.23 191.267 1191.89 190.585C1190.59 189.903 1188.94 189.562 1186.95 189.562C1183.97 189.562 1181.31 190.244 1178.98 191.608C1176.65 192.972 1175.33 194.719 1175.02 196.849C1174.76 198.213 1175.12 199.364 1176.08 200.301C1177.05 201.239 1179 202.034 1181.92 202.688L1193.43 205.074C1199.56 206.381 1204 208.554 1206.72 211.594C1209.48 214.634 1210.46 218.611 1209.66 223.526C1208.95 227.702 1207.12 231.352 1204.17 234.477C1201.21 237.574 1197.46 239.989 1192.92 241.722C1188.37 243.426 1183.33 244.278 1177.79 244.278C1168.9 244.278 1162.13 242.46 1157.5 238.824C1152.87 235.187 1150.64 230.259 1150.81 224.037L1168.54 223.099C1168.68 225.77 1169.62 227.787 1171.35 229.151C1173.09 230.486 1175.46 231.168 1178.47 231.196C1181.85 231.253 1184.72 230.557 1187.08 229.108C1189.46 227.631 1190.81 225.841 1191.13 223.739C1191.35 222.261 1190.93 221.068 1189.85 220.159C1188.8 219.25 1186.87 218.497 1184.05 217.901L1173.14 215.642C1166.95 214.364 1162.5 212.077 1159.81 208.781C1157.11 205.486 1156.18 201.295 1157.04 196.21C1157.72 192.148 1159.41 188.668 1162.11 185.77C1164.83 182.844 1168.34 180.599 1172.63 179.037C1176.95 177.474 1181.82 176.693 1187.25 176.693C1195.74 176.693 1202.13 178.44 1206.42 181.935C1210.74 185.429 1212.8 190.187 1212.6 196.21Z" fill="white"/>
<defs>
<linearGradient id="paint0_linear_2_18" x1="565.585" y1="57.4427" x2="-30.378" y2="170.836" gradientUnits="userSpaceOnUse">
<stop stop-color="#E0BD23"/>
<stop offset="1" stop-color="#F89A0E"/>
</linearGradient>
</defs>
</svg>
