<svg width="1184" height="274" viewBox="0 0 1184 274" fill="none" xmlns="http://www.w3.org/2000/svg">
<path d="M367.87 12.1916L370.895 14.3242L367.87 12.1916C366.997 13.4293 366.868 14.7048 366.836 15.2601C366.797 15.9323 366.861 16.5483 366.929 17.0062C366.971 17.2901 367.024 17.5774 367.086 17.8628C351.634 20.0613 340.023 27.5235 335.44 31.7689C317.026 48.0898 300.784 55.1031 295.567 56.5003L295.346 56.5594L295.132 56.6385C293.196 57.3519 289.544 58.1057 284.494 58.8104C279.57 59.4975 273.691 60.0903 267.541 60.5894C255.247 61.5872 242.074 62.1945 233.711 62.4471L233.534 62.4524L233.358 62.4703C195.282 66.3311 173.257 76.3922 166.411 81.6815C133.907 106.369 117.059 114.913 114.074 116.425C91.1058 126.844 84.5274 127.994 74.5897 128.999C60.0789 130.466 40.8623 126.406 31.6791 123.423L31.4662 123.353L31.2481 123.304C23.3384 121.496 17.1534 122.969 12.7389 126.265C8.5915 129.361 6.52034 133.686 5.8416 136.973C4.13265 143.582 5.6516 149.07 8.4447 153.121C11.1317 157.018 14.8822 159.446 17.6914 160.561L17.7434 160.581L17.7958 160.601C26.6173 163.876 33.1513 165.496 38.8362 166.253C44.106 166.954 48.5179 166.889 52.9322 166.823C53.2559 166.818 53.5795 166.813 53.9035 166.809C64.158 166.666 78.8122 163.792 89.9446 160.81C112.667 154.724 129.393 141.887 137.782 135.449C139.255 134.319 140.471 133.385 141.417 132.721L141.6 132.592L141.771 132.447L163.513 114.061L163.529 114.047L163.546 114.033L169.199 109.168C178.864 101.093 189.072 97.4898 197.295 95.7267C196.759 96.7731 196.211 97.8642 195.66 98.9778C192.66 105.041 189.451 112.005 187.385 116.624C185.428 120.364 180.218 127.673 177.659 131.101C173.636 136.216 170.21 139.39 167.679 141.268C165.477 142.902 164.204 143.374 163.916 143.48C163.848 143.506 163.834 143.511 163.877 143.506L163.825 143.512L163.774 143.519C159.189 144.15 155.832 145.177 153.435 146.408C152.235 147.025 151.185 147.739 150.338 148.559C149.619 149.254 148.753 150.311 148.339 151.722C147.91 152.981 146.942 154.839 145.413 157.2C143.889 159.552 141.975 162.15 139.904 164.771C135.809 169.953 131.265 175.018 128.311 178.119C123.127 182.994 124.641 189.188 126.105 191.761C127.632 194.471 130.269 195.513 132.256 195.893C134.264 196.276 136.39 196.16 138.228 195.907C141.941 195.397 145.828 194.129 148.299 193.132C157.627 189.447 164.894 180.894 167.561 176.924C173.432 169.524 179.515 166.856 181.01 166.489L181.084 166.471L181.157 166.45L211.262 158.082L211.444 158.031L211.622 157.967C217.411 155.875 222.852 151.975 227.171 148.207C231.533 144.402 235.078 140.443 237.074 137.86L237.336 137.522L237.536 137.144C241.072 130.47 249.258 121.043 253.05 117.062L253.105 117.005L253.158 116.946C253.708 116.33 255.313 115.4 258.01 114.567C260.407 113.826 262.901 113.39 264.45 113.217C266.151 113.154 268.697 113.482 271.473 114.049C274.225 114.611 276.815 115.325 278.306 115.793L278.381 115.817L278.457 115.838C281.584 116.713 285.956 117.167 289.825 117.417C293.806 117.674 297.703 117.74 300.11 117.722L300.338 117.72L300.564 117.697C318.882 115.88 335.972 109.387 345.077 105.023C346.167 105.849 347.318 106.409 348.281 106.779C350.64 107.686 353.106 107.969 354.745 107.975L356.412 107.981L357.749 106.986C357.749 106.986 357.757 106.98 357.775 106.968C357.792 106.956 357.817 106.939 357.851 106.919C357.919 106.876 358.012 106.822 358.135 106.755C358.384 106.62 358.712 106.46 359.128 106.275C359.965 105.903 361.042 105.487 362.335 105.036C364.919 104.135 368.151 103.173 371.634 102.223C378.59 100.326 386.286 98.5499 391.238 97.4975L391.539 97.4336L391.829 97.3334C398.241 95.1213 406.966 96.6474 416.072 100.321C424.97 103.91 433.188 109.125 437.953 112.78L439.148 113.695L440.649 113.8C446.918 114.236 451.746 113.202 454.925 110.488C458.311 107.596 458.864 103.637 458.128 100.771L458.001 100.279L457.779 99.8228C449.078 81.9787 434.184 72.6808 419.46 68.321C407.949 64.9129 396.373 64.4567 387.451 65.2754C387.769 64.3071 388.14 63.4652 388.469 62.819C389.052 62.6273 389.794 62.4226 390.639 62.2184C392.43 61.7858 394.386 61.4251 395.62 61.2302L395.848 61.1941L396.071 61.1372C397.756 60.7089 401.006 60.6845 404.962 61.0414C408.718 61.3803 412.451 61.9942 414.694 62.4477L416.473 62.8073L418.068 61.9426C431.42 54.7044 434.25 43.2774 433.452 37.3194L433.077 34.5234L430.49 33.3978C429.586 33.0044 427.809 31.6969 425.605 29.6911C423.625 27.8894 421.742 25.9383 420.593 24.6694C412.129 13.8798 400.972 12.1518 394.242 12.9833C392.51 11.8152 390.605 11.0237 388.799 10.4782C386.142 9.67561 383.354 9.30154 380.864 9.1685C378.365 9.03503 376.008 9.13603 374.151 9.36242C373.236 9.47405 372.333 9.62909 371.546 9.84036C371.163 9.94331 370.68 10.093 370.19 10.3152L370.178 10.3206C369.882 10.4545 368.725 10.9786 367.87 12.1916Z" fill="url(#paint0_linear_2_18)" stroke="black" stroke-width="10"/>
<path d="M250.131 230L264.619 142.727H323.426L320.869 157.94H280.514L277.105 178.736H314.435L311.878 193.949H274.548L271.139 214.787H311.665L309.108 230H250.131ZM355.908 142.727L341.42 230H323.266L337.755 142.727H355.908ZM356.089 230L366.999 164.545H384.257L382.382 176.094H383.107C385.095 172.259 387.865 169.233 391.416 167.017C394.996 164.801 399.016 163.693 403.476 163.693C407.908 163.693 411.516 164.815 414.3 167.06C417.112 169.276 418.732 172.287 419.158 176.094H419.839C421.771 172.344 424.683 169.347 428.575 167.102C432.467 164.83 436.814 163.693 441.615 163.693C447.666 163.693 452.297 165.639 455.507 169.531C458.717 173.423 459.726 178.906 458.533 185.98L451.203 230H433.05L439.868 189.56C440.408 185.895 439.868 183.168 438.249 181.378C436.629 179.56 434.371 178.651 431.473 178.651C428.178 178.651 425.436 179.702 423.249 181.804C421.061 183.878 419.712 186.619 419.2 190.028L412.425 230H394.825L401.729 189.176C402.212 185.937 401.686 183.381 400.152 181.506C398.646 179.602 396.388 178.651 393.376 178.651C391.388 178.651 389.499 179.162 387.709 180.185C385.947 181.179 384.456 182.585 383.234 184.403C382.013 186.193 381.217 188.295 380.848 190.71L374.2 230H356.089ZM495.074 231.278C488.369 231.278 482.815 229.915 478.412 227.188C474.009 224.432 470.912 220.54 469.122 215.511C467.361 210.455 467.063 204.474 468.227 197.571C469.364 190.838 471.651 184.929 475.088 179.844C478.554 174.759 482.901 170.795 488.128 167.955C493.355 165.114 499.179 163.693 505.599 163.693C509.918 163.693 513.824 164.389 517.318 165.781C520.841 167.145 523.767 169.219 526.097 172.003C528.426 174.759 530.017 178.21 530.869 182.358C531.75 186.506 531.736 191.364 530.827 196.932L530.017 201.918H474.79L476.537 190.668H514.719C515.145 188.054 514.974 185.739 514.207 183.722C513.44 181.705 512.162 180.128 510.372 178.991C508.582 177.827 506.381 177.244 503.767 177.244C501.097 177.244 498.597 177.898 496.267 179.205C493.938 180.511 491.977 182.23 490.386 184.361C488.824 186.463 487.815 188.75 487.361 191.222L485.358 202.386C484.79 205.824 484.903 208.679 485.699 210.952C486.523 213.224 487.943 214.929 489.96 216.065C491.977 217.173 494.534 217.727 497.631 217.727C499.648 217.727 501.537 217.443 503.298 216.875C505.088 216.307 506.679 215.469 508.071 214.361C509.463 213.224 510.599 211.818 511.48 210.142L528.057 211.25C526.523 215.284 524.193 218.807 521.068 221.818C517.943 224.801 514.179 227.131 509.776 228.807C505.401 230.455 500.5 231.278 495.074 231.278ZM537.251 230L548.16 164.545H565.759L563.842 175.966H564.523C566.398 171.903 568.913 168.835 572.066 166.761C575.248 164.659 578.671 163.608 582.336 163.608C583.245 163.608 584.197 163.665 585.191 163.778C586.214 163.864 587.123 164.006 587.918 164.205L585.191 180.355C584.396 180.071 583.259 179.844 581.782 179.673C580.333 179.474 578.955 179.375 577.648 179.375C575.006 179.375 572.549 179.957 570.276 181.122C568.004 182.259 566.086 183.849 564.523 185.895C562.989 187.94 561.981 190.298 561.498 192.969L555.404 230H537.251ZM618.046 142.727L616.555 151.932C616.129 154.545 615.177 157.216 613.7 159.943C612.251 162.642 610.489 165.199 608.415 167.614C606.342 170 604.183 172.031 601.938 173.707L594.609 168.977C596.398 166.733 598.06 164.247 599.594 161.52C601.157 158.793 602.237 155.625 602.833 152.017L604.41 142.727H618.046ZM669.737 183.21L653.245 184.233C653.16 182.784 652.762 181.491 652.052 180.355C651.37 179.19 650.362 178.267 649.026 177.585C647.719 176.903 646.072 176.562 644.083 176.562C641.1 176.562 638.444 177.244 636.114 178.608C633.785 179.972 632.464 181.719 632.151 183.849C631.896 185.213 632.251 186.364 633.217 187.301C634.183 188.239 636.129 189.034 639.055 189.688L650.56 192.074C656.697 193.381 661.129 195.554 663.856 198.594C666.612 201.634 667.592 205.611 666.796 210.526C666.086 214.702 664.254 218.352 661.299 221.477C658.344 224.574 654.594 226.989 650.049 228.722C645.504 230.426 640.461 231.278 634.921 231.278C626.029 231.278 619.268 229.46 614.637 225.824C610.006 222.187 607.776 217.259 607.947 211.037L625.674 210.099C625.816 212.77 626.754 214.787 628.487 216.151C630.219 217.486 632.592 218.168 635.603 218.196C638.984 218.253 641.853 217.557 644.211 216.108C646.597 214.631 647.947 212.841 648.259 210.739C648.487 209.261 648.06 208.068 646.981 207.159C645.93 206.25 643.998 205.497 641.185 204.901L630.276 202.642C624.083 201.364 619.637 199.077 616.938 195.781C614.239 192.486 613.316 188.295 614.168 183.21C614.85 179.148 616.54 175.668 619.239 172.77C621.967 169.844 625.475 167.599 629.765 166.037C634.083 164.474 638.955 163.693 644.381 163.693C652.876 163.693 659.268 165.44 663.558 168.935C667.876 172.429 669.935 177.187 669.737 183.21ZM703.06 230L717.549 142.727H776.356L773.799 157.94H733.444L730.035 178.736H767.364L764.808 193.949H727.478L724.069 214.787H764.594L762.038 230H703.06ZM802.276 164.545L810.457 187.429L826.608 164.545H845.23L820.812 197.273L834.832 230H816.295L807.134 207.372L790.685 230H771.935L796.821 197.273L783.526 164.545H802.276ZM841.139 254.545L856.224 164.545H874.122L872.29 175.54H873.099C874.179 173.778 875.614 171.989 877.403 170.17C879.222 168.324 881.48 166.79 884.179 165.568C886.878 164.318 890.045 163.693 893.682 163.693C898.483 163.693 902.673 164.943 906.253 167.443C909.832 169.915 912.418 173.651 914.009 178.651C915.628 183.622 915.812 189.858 914.562 197.358C913.369 204.659 911.168 210.824 907.957 215.852C904.776 220.852 900.955 224.645 896.494 227.23C892.063 229.787 887.361 231.065 882.389 231.065C878.866 231.065 875.969 230.483 873.696 229.318C871.452 228.153 869.705 226.69 868.455 224.929C867.205 223.139 866.324 221.335 865.812 219.517H865.131L859.335 254.545H841.139ZM868.54 197.273C867.915 201.165 867.886 204.56 868.455 207.457C869.051 210.355 870.244 212.614 872.034 214.233C873.824 215.824 876.182 216.619 879.108 216.619C882.063 216.619 884.69 215.81 886.991 214.19C889.293 212.543 891.21 210.27 892.744 207.372C894.278 204.446 895.372 201.08 896.026 197.273C896.622 193.494 896.636 190.17 896.068 187.301C895.5 184.432 894.335 182.187 892.574 180.568C890.813 178.949 888.426 178.139 885.415 178.139C882.489 178.139 879.861 178.92 877.531 180.483C875.23 182.045 873.313 184.261 871.778 187.131C870.244 190 869.165 193.381 868.54 197.273ZM921.157 230L932.066 164.545H949.665L947.748 175.966H948.43C950.305 171.903 952.819 168.835 955.972 166.761C959.154 164.659 962.577 163.608 966.242 163.608C967.151 163.608 968.103 163.665 969.097 163.778C970.12 163.864 971.029 164.006 971.825 164.205L969.097 180.355C968.302 180.071 967.165 179.844 965.688 179.673C964.239 179.474 962.862 179.375 961.555 179.375C958.913 179.375 956.455 179.957 954.183 181.122C951.91 182.259 949.992 183.849 948.43 185.895C946.896 187.94 945.887 190.298 945.404 192.969L939.31 230H921.157ZM996.871 231.278C990.166 231.278 984.612 229.915 980.209 227.188C975.805 224.432 972.709 220.54 970.919 215.511C969.158 210.455 968.859 204.474 970.024 197.571C971.161 190.838 973.447 184.929 976.885 179.844C980.351 174.759 984.697 170.795 989.925 167.955C995.152 165.114 1000.98 163.693 1007.4 163.693C1011.71 163.693 1015.62 164.389 1019.12 165.781C1022.64 167.145 1025.56 169.219 1027.89 172.003C1030.22 174.759 1031.81 178.21 1032.67 182.358C1033.55 186.506 1033.53 191.364 1032.62 196.932L1031.81 201.918H976.587L978.334 190.668H1016.52C1016.94 188.054 1016.77 185.739 1016 183.722C1015.24 181.705 1013.96 180.128 1012.17 178.991C1010.38 177.827 1008.18 177.244 1005.56 177.244C1002.89 177.244 1000.39 177.898 998.064 179.205C995.734 180.511 993.774 182.23 992.183 184.361C990.621 186.463 989.612 188.75 989.158 191.222L987.155 202.386C986.587 205.824 986.7 208.679 987.496 210.952C988.32 213.224 989.74 214.929 991.757 216.065C993.774 217.173 996.331 217.727 999.428 217.727C1001.44 217.727 1003.33 217.443 1005.1 216.875C1006.88 216.307 1008.48 215.469 1009.87 214.361C1011.26 213.224 1012.4 211.818 1013.28 210.142L1029.85 211.25C1028.32 215.284 1025.99 218.807 1022.87 221.818C1019.74 224.801 1015.98 227.131 1011.57 228.807C1007.2 230.455 1002.3 231.278 996.871 231.278ZM1101.22 183.21L1084.73 184.233C1084.64 182.784 1084.25 181.491 1083.54 180.355C1082.85 179.19 1081.85 178.267 1080.51 177.585C1079.2 176.903 1077.56 176.562 1075.57 176.562C1072.58 176.562 1069.93 177.244 1067.6 178.608C1065.27 179.972 1063.95 181.719 1063.64 183.849C1063.38 185.213 1063.74 186.364 1064.7 187.301C1065.67 188.239 1067.61 189.034 1070.54 189.688L1082.04 192.074C1088.18 193.381 1092.61 195.554 1095.34 198.594C1098.1 201.634 1099.08 205.611 1098.28 210.526C1097.57 214.702 1095.74 218.352 1092.78 221.477C1089.83 224.574 1086.08 226.989 1081.53 228.722C1076.99 230.426 1071.95 231.278 1066.41 231.278C1057.51 231.278 1050.75 229.46 1046.12 225.824C1041.49 222.187 1039.26 217.259 1039.43 211.037L1057.16 210.099C1057.3 212.77 1058.24 214.787 1059.97 216.151C1061.7 217.486 1064.08 218.168 1067.09 218.196C1070.47 218.253 1073.34 217.557 1075.7 216.108C1078.08 214.631 1079.43 212.841 1079.74 210.739C1079.97 209.261 1079.54 208.068 1078.47 207.159C1077.41 206.25 1075.48 205.497 1072.67 204.901L1061.76 202.642C1055.57 201.364 1051.12 199.077 1048.42 195.781C1045.72 192.486 1044.8 188.295 1045.65 183.21C1046.33 179.148 1048.02 175.668 1050.72 172.77C1053.45 169.844 1056.96 167.599 1061.25 166.037C1065.57 164.474 1070.44 163.693 1075.87 163.693C1084.36 163.693 1090.75 165.44 1095.04 168.935C1099.36 172.429 1101.42 177.187 1101.22 183.21ZM1168.6 183.21L1152.11 184.233C1152.03 182.784 1151.63 181.491 1150.92 180.355C1150.24 179.19 1149.23 178.267 1147.89 177.585C1146.59 176.903 1144.94 176.562 1142.95 176.562C1139.97 176.562 1137.31 177.244 1134.98 178.608C1132.65 179.972 1131.33 181.719 1131.02 183.849C1130.76 185.213 1131.12 186.364 1132.08 187.301C1133.05 188.239 1135 189.034 1137.92 189.688L1149.43 192.074C1155.56 193.381 1160 195.554 1162.72 198.594C1165.48 201.634 1166.46 205.611 1165.66 210.526C1164.95 214.702 1163.12 218.352 1160.17 221.477C1157.21 224.574 1153.46 226.989 1148.92 228.722C1144.37 230.426 1139.33 231.278 1133.79 231.278C1124.9 231.278 1118.13 229.46 1113.5 225.824C1108.87 222.187 1106.64 217.259 1106.81 211.037L1124.54 210.099C1124.68 212.77 1125.62 214.787 1127.35 216.151C1129.09 217.486 1131.46 218.168 1134.47 218.196C1137.85 218.253 1140.72 217.557 1143.08 216.108C1145.46 214.631 1146.81 212.841 1147.13 210.739C1147.35 209.261 1146.93 208.068 1145.85 207.159C1144.8 206.25 1142.87 205.497 1140.05 204.901L1129.14 202.642C1122.95 201.364 1118.5 199.077 1115.81 195.781C1113.11 192.486 1112.18 188.295 1113.04 183.21C1113.72 179.148 1115.41 175.668 1118.11 172.77C1120.83 169.844 1124.34 167.599 1128.63 166.037C1132.95 164.474 1137.82 163.693 1143.25 163.693C1151.74 163.693 1158.13 165.44 1162.42 168.935C1166.74 172.429 1168.8 177.187 1168.6 183.21Z" fill="black"/>
<defs>
<linearGradient id="paint0_linear_2_18" x1="474.888" y1="48.1254" x2="-23.4646" y2="142.826" gradientUnits="userSpaceOnUse">
<stop stop-color="#E0BD23"/>
<stop offset="1" stop-color="#F89A0E"/>
</linearGradient>
</defs>
</svg>
