<svg width="686" height="179" viewBox="0 0 686 179" fill="none" xmlns="http://www.w3.org/2000/svg">
<path d="M593.826 5.24653C592.577 6.28753 593.306 13.3141 593.826 16.6973C567.757 10.6949 544.722 17.9581 536.463 22.34C501.724 39.7029 473.602 44.0437 463.884 44.0437C447.631 45.5319 393.113 34.0186 367.886 28.0759C310.443 18.7744 275.348 25.1432 264.982 29.4904C206.131 53.5152 177.26 59.5753 171.988 60.682L171.901 60.7002C132.978 67.1503 121.859 66.3327 105.604 63.6962C81.9828 59.8647 54.0255 45.5834 41.1405 37.224C22.4507 27.3488 11.4926 37.7801 8.34982 44.2301C0.139647 58.5091 8.9339 70.1413 14.3573 74.1726C37.2692 90.4207 48.5823 92.924 62.9477 96.5554C77.313 100.187 99.4735 101.745 116.977 101.745C157.738 101.745 189.868 85.4076 201.962 80.987L241.571 62.3433L251.954 57.3461C280.218 44.2301 306.102 47.5735 319.416 49.6857C315.311 51.2949 294.833 75.6347 285.107 87.6035C280.277 92.914 268.862 102.277 263.758 106.295C246.774 119.017 235.877 121.223 232.551 120.735C219.546 119.103 214.661 121.712 213.843 123.22C207.185 133.422 182.419 150.021 170.868 157.045C165.295 159.939 165.168 165.426 165.802 167.807C167.394 174.102 182.509 173.867 189.868 172.962C203.186 171.443 216.166 162.501 220.991 158.221C233.947 148.525 245.811 146.282 250.124 146.373L298.165 145.921C314.306 144.546 332.757 133.229 339.965 127.742C348.65 118.409 365.358 107.212 372.626 102.781C378.488 98.9461 390.992 99.7359 396.511 100.61C403.604 102.13 414.304 108.177 418.767 111.011C425.861 115.207 441.338 119.81 448.19 121.588C479.373 126.707 510.804 122.152 522.622 119.234C522.726 124.647 529.782 127.909 533.296 128.863C540.898 125.844 574.3 126.738 590.051 127.562C616.606 125.688 647.11 156.276 659.042 171.804C675.704 177.529 679.957 170.719 680 166.599C669.378 111.947 613.005 94.2939 586.146 92.2987C587.292 84.4914 592.958 77.8551 595.649 75.5129C598.356 74.4719 607.277 75.0791 611.399 75.5129C619.626 75.617 635.134 82.3226 641.86 85.6625C661.438 80.978 667.894 67.7489 668.675 61.7198C664.093 58.0764 657.827 47.1027 655.267 42.0713C647.249 23.0213 630.838 18.3455 623.636 18.3889C617.518 7.71885 595.388 3.94528 593.826 5.24653Z" stroke="url(#paint0_linear_1_13)" stroke-width="10"/>
<defs>
<linearGradient id="paint0_linear_1_13" x1="680" y1="5.00006" x2="5" y2="5.00001" gradientUnits="userSpaceOnUse">
<stop stop-color="#DEC025"/>
<stop offset="0.453125" stop-color="#E0BD23"/>
<stop offset="1" stop-color="#F89A0E"/>
</linearGradient>
</defs>
</svg>
