<svg width="236" height="70" viewBox="0 0 236 70" fill="none" xmlns="http://www.w3.org/2000/svg">
<path d="M161.539 0.0555994C161.255 0.290373 161.421 1.87507 161.539 2.63807C155.627 1.28437 150.403 2.92241 148.53 3.91065C140.652 7.82647 134.275 8.80543 132.071 8.80543C128.385 9.14107 116.02 6.5445 110.299 5.20427C97.2713 3.1065 89.3125 4.54286 86.9615 5.52326C73.6157 10.9415 67.0683 12.3082 65.8727 12.5578L65.8531 12.5619C57.0259 14.0166 54.5041 13.8322 50.8178 13.2376C45.4606 12.3735 39.1197 9.15268 36.1973 7.26741C31.9583 5.04028 29.4735 7.39282 28.761 8.84747C26.8995 12.0678 28.8943 14.6912 30.1244 15.6003C35.321 19.2647 37.8868 19.8293 41.1448 20.6483C44.4028 21.4673 49.4286 21.8187 53.3982 21.8187C62.6423 21.8187 69.9284 18.1342 72.6712 17.1372L81.6533 12.9325L84.0079 11.8055C90.4175 8.84747 96.2877 9.60152 99.3074 10.0779C98.3764 10.4408 93.7329 15.9301 91.5275 18.6294C90.4324 19.8271 87.8439 21.9387 86.6865 22.8449C82.8352 25.714 80.3638 26.2114 79.6095 26.1015C76.6603 25.7335 75.5523 26.3218 75.367 26.6619C73.8572 28.9627 68.2412 32.7062 65.6219 34.2903C64.358 34.943 64.3295 36.1804 64.4732 36.7175C64.8345 38.1372 68.2625 38.0841 69.9313 37.8801C72.9515 37.5375 75.895 35.5209 76.9891 34.5555C79.9271 32.3689 82.6177 31.8631 83.5957 31.8835L94.491 31.7815C98.1514 31.4715 102.335 28.9192 103.97 27.6818C105.939 25.5768 109.728 23.0517 111.376 22.0523C112.706 21.1875 115.541 21.3656 116.793 21.5628C118.402 21.9054 120.829 23.2693 121.841 23.9084C123.45 24.8548 126.96 25.8929 128.514 26.2937C135.586 27.4483 142.714 26.421 145.394 25.763C145.418 26.9838 147.018 27.7194 147.815 27.9346C149.539 27.2538 157.059 25.8918 160.631 26.0777C166.396 26.0777 173.628 34.1169 176.334 37.6189C180.113 38.9101 178.892 36.555 178.515 35.9557C168.547 20.0965 164.88 21.4892 159.8 19.6883C160.059 17.9275 161.344 16.4308 161.954 15.9026C162.568 15.6678 164.592 15.8048 165.526 15.9026C167.392 15.9261 170.909 17.4384 172.435 18.1916C176.875 17.1352 178.338 14.1516 178.515 12.7919C177.476 11.9702 176.055 9.49533 175.474 8.36061C173.655 4.0643 169.933 3.00979 168.3 3.01957C166.912 0.613175 161.893 -0.237868 161.539 0.0555994Z" fill="url(#paint0_linear_2_18)"/>
<path d="M15.03 58H2.7V36.58H15.03V40.3H7.23V45.01H14.49V48.73H7.23V54.25H15.03V58ZM23.5971 58H19.1271V35.2H23.5971V58ZM47.4977 41.32C49.3577 41.32 50.7577 41.8 51.6977 42.76C52.6577 43.7 53.1377 45.22 53.1377 47.32V58H48.6677V48.43C48.6677 47.25 48.4677 46.37 48.0677 45.79C47.6677 45.19 47.0477 44.89 46.2077 44.89C45.0277 44.89 44.1877 45.31 43.6877 46.15C43.1877 46.99 42.9377 48.2 42.9377 49.78V58H38.4677V48.43C38.4677 47.65 38.3777 47 38.1977 46.48C38.0177 45.96 37.7477 45.57 37.3877 45.31C37.0277 45.03 36.5677 44.89 36.0077 44.89C35.1877 44.89 34.5377 45.1 34.0577 45.52C33.5777 45.94 33.2377 46.55 33.0377 47.35C32.8377 48.15 32.7377 49.13 32.7377 50.29V58H28.2677V41.62H31.6877L32.2877 43.72H32.5277C32.8677 43.16 33.2877 42.71 33.7877 42.37C34.2877 42.01 34.8377 41.75 35.4377 41.59C36.0577 41.41 36.6777 41.32 37.2977 41.32C38.4977 41.32 39.5177 41.52 40.3577 41.92C41.1977 42.3 41.8377 42.9 42.2777 43.72H42.6677C43.1677 42.88 43.8577 42.27 44.7377 41.89C45.6377 41.51 46.5577 41.32 47.4977 41.32ZM64.4904 41.32C66.0104 41.32 67.3104 41.61 68.3904 42.19C69.4904 42.77 70.3404 43.61 70.9404 44.71C71.5404 45.81 71.8404 47.16 71.8404 48.76V50.92H61.2804C61.3204 52.18 61.6904 53.17 62.3904 53.89C63.1104 54.61 64.1004 54.97 65.3604 54.97C66.4204 54.97 67.3804 54.87 68.2404 54.67C69.1004 54.45 69.9904 54.12 70.9104 53.68V57.13C70.1104 57.53 69.2604 57.82 68.3604 58C67.4804 58.2 66.4104 58.3 65.1504 58.3C63.5104 58.3 62.0604 58 60.8004 57.4C59.5404 56.78 58.5504 55.85 57.8304 54.61C57.1104 53.37 56.7504 51.81 56.7504 49.93C56.7504 48.01 57.0704 46.42 57.7104 45.16C58.3704 43.88 59.2804 42.92 60.4404 42.28C61.6004 41.64 62.9504 41.32 64.4904 41.32ZM64.5204 44.5C63.6604 44.5 62.9404 44.78 62.3604 45.34C61.8004 45.9 61.4704 46.77 61.3704 47.95H67.6404C67.6404 47.29 67.5204 46.7 67.2804 46.18C67.0604 45.66 66.7204 45.25 66.2604 44.95C65.8004 44.65 65.2204 44.5 64.5204 44.5ZM84.615 41.32C84.835 41.32 85.095 41.33 85.395 41.35C85.695 41.37 85.935 41.4 86.115 41.44L85.785 45.64C85.645 45.6 85.435 45.57 85.155 45.55C84.895 45.51 84.665 45.49 84.465 45.49C83.885 45.49 83.325 45.57 82.785 45.73C82.245 45.87 81.755 46.1 81.315 46.42C80.895 46.74 80.555 47.17 80.295 47.71C80.055 48.23 79.935 48.88 79.935 49.66V58H75.465V41.62H78.855L79.515 44.38H79.725C80.045 43.82 80.445 43.31 80.925 42.85C81.405 42.39 81.955 42.02 82.575 41.74C83.215 41.46 83.895 41.32 84.615 41.32ZM94.0992 36.91C93.9192 37.61 93.6892 38.37 93.4092 39.19C93.1292 39.99 92.8292 40.8 92.5092 41.62C92.1892 42.42 91.8592 43.19 91.5192 43.93H88.3092C88.4492 43.33 88.5892 42.71 88.7292 42.07C88.8692 41.43 88.9992 40.79 89.1192 40.15C89.2592 39.49 89.3792 38.86 89.4792 38.26C89.5992 37.66 89.6992 37.1 89.7792 36.58H93.8892L94.0992 36.91ZM107.315 53.14C107.315 54.24 107.055 55.18 106.535 55.96C106.015 56.72 105.235 57.3 104.195 57.7C103.155 58.1 101.865 58.3 100.325 58.3C99.1849 58.3 98.2049 58.22 97.3849 58.06C96.5649 57.92 95.7449 57.68 94.9249 57.34V53.65C95.8049 54.05 96.7549 54.38 97.7749 54.64C98.7949 54.9 99.6949 55.03 100.475 55.03C101.355 55.03 101.975 54.9 102.335 54.64C102.715 54.38 102.905 54.04 102.905 53.62C102.905 53.34 102.825 53.09 102.665 52.87C102.525 52.65 102.205 52.4 101.705 52.12C101.205 51.84 100.425 51.48 99.3649 51.04C98.3449 50.6 97.5049 50.17 96.8449 49.75C96.1849 49.31 95.6949 48.79 95.3749 48.19C95.0549 47.57 94.8949 46.8 94.8949 45.88C94.8949 44.36 95.4849 43.22 96.6649 42.46C97.8449 41.7 99.4149 41.32 101.375 41.32C102.395 41.32 103.365 41.42 104.285 41.62C105.205 41.82 106.155 42.15 107.135 42.61L105.785 45.82C105.245 45.58 104.725 45.37 104.225 45.19C103.725 45.01 103.235 44.87 102.755 44.77C102.295 44.67 101.815 44.62 101.315 44.62C100.655 44.62 100.155 44.71 99.8149 44.89C99.4949 45.07 99.3349 45.34 99.3349 45.7C99.3349 45.96 99.4149 46.2 99.5749 46.42C99.7549 46.62 100.085 46.84 100.565 47.08C101.065 47.32 101.795 47.64 102.755 48.04C103.695 48.42 104.505 48.82 105.185 49.24C105.865 49.64 106.385 50.15 106.745 50.77C107.125 51.37 107.315 52.16 107.315 53.14ZM131.28 58H118.95V36.58H131.28V40.3H123.48V45.01H130.74V48.73H123.48V54.25H131.28V58ZM138.737 49.63L133.457 41.62H138.527L141.707 46.84L144.917 41.62H149.987L144.647 49.63L150.227 58H145.157L141.707 52.39L138.257 58H133.187L138.737 49.63ZM161.841 41.32C163.681 41.32 165.171 42.04 166.311 43.48C167.451 44.9 168.021 47 168.021 49.78C168.021 51.64 167.751 53.21 167.211 54.49C166.671 55.75 165.931 56.7 164.991 57.34C164.051 57.98 162.961 58.3 161.721 58.3C160.941 58.3 160.261 58.2 159.681 58C159.121 57.8 158.641 57.54 158.241 57.22C157.841 56.9 157.491 56.56 157.191 56.2H156.951C157.031 56.58 157.091 56.98 157.131 57.4C157.171 57.8 157.191 58.2 157.191 58.6V65.2H152.721V41.62H156.351L156.981 43.75H157.191C157.491 43.31 157.851 42.91 158.271 42.55C158.691 42.17 159.191 41.87 159.771 41.65C160.371 41.43 161.061 41.32 161.841 41.32ZM160.401 44.89C159.621 44.89 159.001 45.05 158.541 45.37C158.081 45.69 157.741 46.18 157.521 46.84C157.321 47.48 157.211 48.29 157.191 49.27V49.75C157.191 50.81 157.291 51.71 157.491 52.45C157.691 53.17 158.031 53.72 158.511 54.1C158.991 54.48 159.641 54.67 160.461 54.67C161.141 54.67 161.701 54.48 162.141 54.1C162.581 53.72 162.911 53.16 163.131 52.42C163.351 51.68 163.461 50.78 163.461 49.72C163.461 48.12 163.211 46.92 162.711 46.12C162.231 45.3 161.461 44.89 160.401 44.89ZM180.855 41.32C181.075 41.32 181.335 41.33 181.635 41.35C181.935 41.37 182.175 41.4 182.355 41.44L182.025 45.64C181.885 45.6 181.675 45.57 181.395 45.55C181.135 45.51 180.905 45.49 180.705 45.49C180.125 45.49 179.565 45.57 179.025 45.73C178.485 45.87 177.995 46.1 177.555 46.42C177.135 46.74 176.795 47.17 176.535 47.71C176.295 48.23 176.175 48.88 176.175 49.66V58H171.705V41.62H175.095L175.755 44.38H175.965C176.285 43.82 176.685 43.31 177.165 42.85C177.645 42.39 178.195 42.02 178.815 41.74C179.455 41.46 180.135 41.32 180.855 41.32ZM191.492 41.32C193.012 41.32 194.312 41.61 195.392 42.19C196.492 42.77 197.342 43.61 197.942 44.71C198.542 45.81 198.842 47.16 198.842 48.76V50.92H188.282C188.322 52.18 188.692 53.17 189.392 53.89C190.112 54.61 191.102 54.97 192.362 54.97C193.422 54.97 194.382 54.87 195.242 54.67C196.102 54.45 196.992 54.12 197.912 53.68V57.13C197.112 57.53 196.262 57.82 195.362 58C194.482 58.2 193.412 58.3 192.152 58.3C190.512 58.3 189.062 58 187.802 57.4C186.542 56.78 185.552 55.85 184.832 54.61C184.112 53.37 183.752 51.81 183.752 49.93C183.752 48.01 184.072 46.42 184.712 45.16C185.372 43.88 186.282 42.92 187.442 42.28C188.602 41.64 189.952 41.32 191.492 41.32ZM191.522 44.5C190.662 44.5 189.942 44.78 189.362 45.34C188.802 45.9 188.472 46.77 188.372 47.95H194.642C194.642 47.29 194.522 46.7 194.282 46.18C194.062 45.66 193.722 45.25 193.262 44.95C192.802 44.65 192.222 44.5 191.522 44.5ZM213.897 53.14C213.897 54.24 213.637 55.18 213.117 55.96C212.597 56.72 211.817 57.3 210.777 57.7C209.737 58.1 208.447 58.3 206.907 58.3C205.767 58.3 204.787 58.22 203.967 58.06C203.147 57.92 202.327 57.68 201.507 57.34V53.65C202.387 54.05 203.337 54.38 204.357 54.64C205.377 54.9 206.277 55.03 207.057 55.03C207.937 55.03 208.557 54.9 208.917 54.64C209.297 54.38 209.487 54.04 209.487 53.62C209.487 53.34 209.407 53.09 209.247 52.87C209.107 52.65 208.787 52.4 208.287 52.12C207.787 51.84 207.007 51.48 205.947 51.04C204.927 50.6 204.087 50.17 203.427 49.75C202.767 49.31 202.277 48.79 201.957 48.19C201.637 47.57 201.477 46.8 201.477 45.88C201.477 44.36 202.067 43.22 203.247 42.46C204.427 41.7 205.997 41.32 207.957 41.32C208.977 41.32 209.947 41.42 210.867 41.62C211.787 41.82 212.737 42.15 213.717 42.61L212.367 45.82C211.827 45.58 211.307 45.37 210.807 45.19C210.307 45.01 209.817 44.87 209.337 44.77C208.877 44.67 208.397 44.62 207.897 44.62C207.237 44.62 206.737 44.71 206.397 44.89C206.077 45.07 205.917 45.34 205.917 45.7C205.917 45.96 205.997 46.2 206.157 46.42C206.337 46.62 206.667 46.84 207.147 47.08C207.647 47.32 208.377 47.64 209.337 48.04C210.277 48.42 211.087 48.82 211.767 49.24C212.447 49.64 212.967 50.15 213.327 50.77C213.707 51.37 213.897 52.16 213.897 53.14ZM228.809 53.14C228.809 54.24 228.549 55.18 228.029 55.96C227.509 56.72 226.729 57.3 225.689 57.7C224.649 58.1 223.359 58.3 221.819 58.3C220.679 58.3 219.699 58.22 218.879 58.06C218.059 57.92 217.239 57.68 216.419 57.34V53.65C217.299 54.05 218.249 54.38 219.269 54.64C220.289 54.9 221.189 55.03 221.969 55.03C222.849 55.03 223.469 54.9 223.829 54.64C224.209 54.38 224.399 54.04 224.399 53.62C224.399 53.34 224.319 53.09 224.159 52.87C224.019 52.65 223.699 52.4 223.199 52.12C222.699 51.84 221.919 51.48 220.859 51.04C219.839 50.6 218.999 50.17 218.339 49.75C217.679 49.31 217.189 48.79 216.869 48.19C216.549 47.57 216.389 46.8 216.389 45.88C216.389 44.36 216.979 43.22 218.159 42.46C219.339 41.7 220.909 41.32 222.869 41.32C223.889 41.32 224.859 41.42 225.779 41.62C226.699 41.82 227.649 42.15 228.629 42.61L227.279 45.82C226.739 45.58 226.219 45.37 225.719 45.19C225.219 45.01 224.729 44.87 224.249 44.77C223.789 44.67 223.309 44.62 222.809 44.62C222.149 44.62 221.649 44.71 221.309 44.89C220.989 45.07 220.829 45.34 220.829 45.7C220.829 45.96 220.909 46.2 221.069 46.42C221.249 46.62 221.579 46.84 222.059 47.08C222.559 47.32 223.289 47.64 224.249 48.04C225.189 48.42 225.999 48.82 226.679 49.24C227.359 49.64 227.879 50.15 228.239 50.77C228.619 51.37 228.809 52.16 228.809 53.14Z" fill="black"/>
<path d="M15.03 58V58.25H15.28V58H15.03ZM2.7 58H2.45V58.25H2.7V58ZM2.7 36.58V36.33H2.45V36.58H2.7ZM15.03 36.58H15.28V36.33H15.03V36.58ZM15.03 40.3V40.55H15.28V40.3H15.03ZM7.23 40.3V40.05H6.98V40.3H7.23ZM7.23 45.01H6.98V45.26H7.23V45.01ZM14.49 45.01H14.74V44.76H14.49V45.01ZM14.49 48.73V48.98H14.74V48.73H14.49ZM7.23 48.73V48.48H6.98V48.73H7.23ZM7.23 54.25H6.98V54.5H7.23V54.25ZM15.03 54.25H15.28V54H15.03V54.25ZM15.03 57.75H2.7V58.25H15.03V57.75ZM2.95 58V36.58H2.45V58H2.95ZM2.7 36.83H15.03V36.33H2.7V36.83ZM14.78 36.58V40.3H15.28V36.58H14.78ZM15.03 40.05H7.23V40.55H15.03V40.05ZM6.98 40.3V45.01H7.48V40.3H6.98ZM7.23 45.26H14.49V44.76H7.23V45.26ZM14.24 45.01V48.73H14.74V45.01H14.24ZM14.49 48.48H7.23V48.98H14.49V48.48ZM6.98 48.73V54.25H7.48V48.73H6.98ZM7.23 54.5H15.03V54H7.23V54.5ZM14.78 54.25V58H15.28V54.25H14.78ZM23.5971 58V58.25H23.8471V58H23.5971ZM19.1271 58H18.8771V58.25H19.1271V58ZM19.1271 35.2V34.95H18.8771V35.2H19.1271ZM23.5971 35.2H23.8471V34.95H23.5971V35.2ZM23.5971 57.75H19.1271V58.25H23.5971V57.75ZM19.3771 58V35.2H18.8771V58H19.3771ZM19.1271 35.45H23.5971V34.95H19.1271V35.45ZM23.3471 35.2V58H23.8471V35.2H23.3471ZM51.6977 42.76L51.5191 42.9349L51.5228 42.9386L51.6977 42.76ZM53.1377 58V58.25H53.3877V58H53.1377ZM48.6677 58H48.4177V58.25H48.6677V58ZM48.0677 45.79L47.8597 45.9287L47.8619 45.9319L48.0677 45.79ZM43.6877 46.15L43.4729 46.0221L43.4729 46.0221L43.6877 46.15ZM42.9377 58V58.25H43.1877V58H42.9377ZM38.4677 58H38.2177V58.25H38.4677V58ZM38.1977 46.48L37.9615 46.5618L37.9615 46.5618L38.1977 46.48ZM37.3877 45.31L37.2342 45.5075L37.2414 45.5127L37.3877 45.31ZM34.0577 45.52L34.2224 45.7081L34.2224 45.7081L34.0577 45.52ZM33.0377 47.35L33.2803 47.4106L33.2803 47.4106L33.0377 47.35ZM32.7377 58V58.25H32.9877V58H32.7377ZM28.2677 58H28.0177V58.25H28.2677V58ZM28.2677 41.62V41.37H28.0177V41.62H28.2677ZM31.6877 41.62L31.9281 41.5513L31.8763 41.37H31.6877V41.62ZM32.2877 43.72L32.0474 43.7887L32.0992 43.97H32.2877V43.72ZM32.5277 43.72V43.97H32.6684L32.7414 43.8497L32.5277 43.72ZM33.7877 42.37L33.9284 42.5768L33.9338 42.5729L33.7877 42.37ZM35.4377 41.59L35.5022 41.8316L35.5074 41.8301L35.4377 41.59ZM40.3577 41.92L40.2502 42.1458L40.2547 42.1478L40.3577 41.92ZM42.2777 43.72L42.0574 43.8382L42.1282 43.97H42.2777V43.72ZM42.6677 43.72V43.97H42.8099L42.8826 43.8479L42.6677 43.72ZM44.7377 41.89L44.6405 41.6597L44.6386 41.6605L44.7377 41.89ZM47.4977 41.57C49.3169 41.57 50.6419 42.039 51.5191 42.9349L51.8764 42.5851C50.8736 41.561 49.3985 41.07 47.4977 41.07V41.57ZM51.5228 42.9386C52.4136 43.8109 52.8877 45.2503 52.8877 47.32H53.3877C53.3877 45.1897 52.9018 43.5891 51.8726 42.5814L51.5228 42.9386ZM52.8877 47.32V58H53.3877V47.32H52.8877ZM53.1377 57.75H48.6677V58.25H53.1377V57.75ZM48.9177 58V48.43H48.4177V58H48.9177ZM48.9177 48.43C48.9177 47.2301 48.7159 46.2895 48.2735 45.6481L47.8619 45.9319C48.2196 46.4505 48.4177 47.2699 48.4177 48.43H48.9177ZM48.2757 45.6513C47.8212 44.9695 47.1153 44.64 46.2077 44.64V45.14C46.9801 45.14 47.5143 45.4105 47.8597 45.9287L48.2757 45.6513ZM46.2077 44.64C44.961 44.64 44.0279 45.0897 43.4729 46.0221L43.9026 46.2779C44.3475 45.5303 45.0945 45.14 46.2077 45.14V44.64ZM43.4729 46.0221C42.9398 46.9178 42.6877 48.18 42.6877 49.78H43.1877C43.1877 48.22 43.4357 47.0622 43.9026 46.2779L43.4729 46.0221ZM42.6877 49.78V58H43.1877V49.78H42.6877ZM42.9377 57.75H38.4677V58.25H42.9377V57.75ZM38.7177 58V48.43H38.2177V58H38.7177ZM38.7177 48.43C38.7177 47.6328 38.626 46.953 38.434 46.3982L37.9615 46.5618C38.1295 47.047 38.2177 47.6672 38.2177 48.43H38.7177ZM38.434 46.3982C38.2412 45.8414 37.9448 45.404 37.5341 45.1073L37.2414 45.5127C37.5506 45.736 37.7942 46.0786 37.9615 46.5618L38.434 46.3982ZM37.5412 45.1127C37.1281 44.7913 36.6103 44.64 36.0077 44.64V45.14C36.5251 45.14 36.9274 45.2687 37.2343 45.5073L37.5412 45.1127ZM36.0077 44.64C35.1449 44.64 34.4305 44.8617 33.8931 45.3319L34.2224 45.7081C34.645 45.3383 35.2305 45.14 36.0077 45.14V44.64ZM33.8931 45.3319C33.3649 45.794 33.004 46.4543 32.7952 47.2894L33.2803 47.4106C33.4715 46.6457 33.7906 46.086 34.2224 45.7081L33.8931 45.3319ZM32.7952 47.2894C32.5887 48.1154 32.4877 49.1171 32.4877 50.29H32.9877C32.9877 49.1429 33.0868 48.1846 33.2803 47.4106L32.7952 47.2894ZM32.4877 50.29V58H32.9877V50.29H32.4877ZM32.7377 57.75H28.2677V58.25H32.7377V57.75ZM28.5177 58V41.62H28.0177V58H28.5177ZM28.2677 41.87H31.6877V41.37H28.2677V41.87ZM31.4474 41.6887L32.0474 43.7887L32.5281 43.6513L31.9281 41.5513L31.4474 41.6887ZM32.2877 43.97H32.5277V43.47H32.2877V43.97ZM32.7414 43.8497C33.0644 43.3178 33.4603 42.895 33.9283 42.5767L33.6472 42.1633C33.1151 42.525 32.671 43.0022 32.314 43.5903L32.7414 43.8497ZM33.9338 42.5729C34.409 42.2308 34.9313 41.9838 35.5022 41.8316L35.3733 41.3484C34.7442 41.5162 34.1665 41.7892 33.6417 42.1671L33.9338 42.5729ZM35.5074 41.8301C36.1057 41.6564 36.7023 41.57 37.2977 41.57V41.07C36.6532 41.07 36.0097 41.1636 35.368 41.3499L35.5074 41.8301ZM37.2977 41.57C38.4709 41.57 39.4521 41.7656 40.2503 42.1457L40.4652 41.6943C39.5834 41.2744 38.5245 41.07 37.2977 41.07V41.57ZM40.2547 42.1478C41.0441 42.5049 41.6432 43.0661 42.0574 43.8382L42.498 43.6018C42.0323 42.7339 41.3513 42.0951 40.4608 41.6922L40.2547 42.1478ZM42.2777 43.97H42.6677V43.47H42.2777V43.97ZM42.8826 43.8479C43.3562 43.0521 44.0062 42.4782 44.8368 42.1195L44.6386 41.6605C43.7093 42.0618 42.9793 42.7079 42.4529 43.5921L42.8826 43.8479ZM44.835 42.1203C45.7054 41.7528 46.5925 41.57 47.4977 41.57V41.07C46.523 41.07 45.57 41.2672 44.6405 41.6597L44.835 42.1203ZM68.3904 42.19L68.2721 42.4103L68.2738 42.4111L68.3904 42.19ZM70.9404 44.71L70.7209 44.8297L70.7209 44.8297L70.9404 44.71ZM71.8404 50.92V51.17H72.0904V50.92H71.8404ZM61.2804 50.92V50.67H61.0223L61.0305 50.9279L61.2804 50.92ZM62.3904 53.89L62.2111 54.0643L62.2136 54.0668L62.3904 53.89ZM68.2404 54.67L68.297 54.9136L68.3023 54.9122L68.2404 54.67ZM70.9104 53.68H71.1604V53.2833L70.8025 53.4545L70.9104 53.68ZM70.9104 57.13L71.0222 57.3536L71.1604 57.2845V57.13H70.9104ZM68.3604 58L68.3113 57.7548L68.305 57.7562L68.3604 58ZM60.8004 57.4L60.69 57.6243L60.6929 57.6257L60.8004 57.4ZM57.8304 54.61L57.6142 54.7355L57.6142 54.7355L57.8304 54.61ZM57.7104 45.16L57.4882 45.0454L57.4875 45.0468L57.7104 45.16ZM60.4404 42.28L60.3196 42.0611L60.3196 42.0611L60.4404 42.28ZM62.3604 45.34L62.1867 45.1601L62.1836 45.1632L62.3604 45.34ZM61.3704 47.95L61.1213 47.9289L61.0983 48.2H61.3704V47.95ZM67.6404 47.95V48.2H67.8904V47.95H67.6404ZM67.2804 46.18L67.05 46.2775L67.0534 46.2848L67.2804 46.18ZM66.2604 44.95L66.397 44.7406L66.397 44.7406L66.2604 44.95ZM64.4904 41.57C65.9789 41.57 67.2362 41.8539 68.2721 42.4102L68.5087 41.9698C67.3846 41.3661 66.0419 41.07 64.4904 41.07V41.57ZM68.2738 42.4111C69.3299 42.968 70.1443 43.7726 70.7209 44.8297L71.1599 44.5903C70.5365 43.4474 69.6509 42.572 68.507 41.9689L68.2738 42.4111ZM70.7209 44.8297C71.2961 45.8842 71.5904 47.1905 71.5904 48.76H72.0904C72.0904 47.1295 71.7847 45.7358 71.1599 44.5903L70.7209 44.8297ZM71.5904 48.76V50.92H72.0904V48.76H71.5904ZM71.8404 50.67H61.2804V51.17H71.8404V50.67ZM61.0305 50.9279C61.072 52.2337 61.4574 53.289 62.2111 54.0643L62.5696 53.7157C61.9234 53.051 61.5688 52.1263 61.5303 50.9121L61.0305 50.9279ZM62.2136 54.0668C62.9911 54.8443 64.0508 55.22 65.3604 55.22V54.72C64.15 54.72 63.2297 54.3757 62.5672 53.7132L62.2136 54.0668ZM65.3604 55.22C66.4358 55.22 67.4152 55.1186 68.297 54.9135L68.1838 54.4265C67.3456 54.6214 66.405 54.72 65.3604 54.72V55.22ZM68.3023 54.9122C69.1803 54.6876 70.0857 54.3516 71.0183 53.9055L70.8025 53.4545C69.8951 53.8884 69.0205 54.2124 68.1784 54.4278L68.3023 54.9122ZM70.6604 53.68V57.13H71.1604V53.68H70.6604ZM70.7986 56.9064C70.019 57.2962 69.1901 57.5791 68.3114 57.7549L68.4094 58.2451C69.3306 58.0609 70.2018 57.7638 71.0222 57.3536L70.7986 56.9064ZM68.305 57.7562C67.4487 57.9508 66.3985 58.05 65.1504 58.05V58.55C66.4223 58.55 67.5121 58.4492 68.4158 58.2438L68.305 57.7562ZM65.1504 58.05C63.5411 58.05 62.1289 57.7557 60.9079 57.1743L60.6929 57.6257C61.9919 58.2443 63.4797 58.55 65.1504 58.55V58.05ZM60.9108 57.1757C59.696 56.5779 58.7424 55.6828 58.0466 54.4845L57.6142 54.7355C58.3584 56.0172 59.3848 56.9821 60.69 57.6243L60.9108 57.1757ZM58.0466 54.4845C57.3546 53.2927 57.0004 51.7793 57.0004 49.93H56.5004C56.5004 51.8407 56.8662 53.4473 57.6142 54.7355L58.0466 54.4845ZM57.0004 49.93C57.0004 48.0359 57.3163 46.4879 57.9333 45.2732L57.4875 45.0468C56.8245 46.3521 56.5004 47.9841 56.5004 49.93H57.0004ZM57.9326 45.2746C58.5719 44.0346 59.4484 43.1129 60.5612 42.4989L60.3196 42.0611C59.1124 42.7271 58.1688 43.7254 57.4882 45.0454L57.9326 45.2746ZM60.5612 42.4989C61.6786 41.8824 62.9857 41.57 64.4904 41.57V41.07C62.9151 41.07 61.5222 41.3976 60.3196 42.0611L60.5612 42.4989ZM64.5204 44.25C63.6004 44.25 62.8167 44.5519 62.1867 45.1601L62.534 45.5198C63.0641 45.0081 63.7204 44.75 64.5204 44.75V44.25ZM62.1836 45.1632C61.5655 45.7813 61.2239 46.7182 61.1213 47.9289L61.6195 47.9711C61.7169 46.8218 62.0353 46.0187 62.5372 45.5168L62.1836 45.1632ZM61.3704 48.2H67.6404V47.7H61.3704V48.2ZM67.8904 47.95C67.8904 47.2593 67.7647 46.6327 67.5074 46.0752L67.0534 46.2848C67.2761 46.7673 67.3904 47.3207 67.3904 47.95H67.8904ZM67.5106 46.0826C67.2718 45.5181 66.8999 45.0686 66.397 44.7406L66.1238 45.1594C66.5409 45.4314 66.849 45.8019 67.0501 46.2774L67.5106 46.0826ZM66.397 44.7406C65.8865 44.4077 65.2557 44.25 64.5204 44.25V44.75C65.1851 44.75 65.7143 44.8923 66.1238 45.1594L66.397 44.7406ZM85.395 41.35L85.3784 41.5994L85.3784 41.5994L85.395 41.35ZM86.115 41.44L86.3642 41.4596L86.3812 41.2431L86.1692 41.196L86.115 41.44ZM85.785 45.64L85.7163 45.8804L86.0103 45.9644L86.0342 45.6596L85.785 45.64ZM85.155 45.55L85.117 45.7971L85.127 45.7986L85.1372 45.7994L85.155 45.55ZM82.785 45.73L82.8478 45.9721L82.856 45.9697L82.785 45.73ZM81.315 46.42L81.1679 46.2178L81.1635 46.2211L81.315 46.42ZM80.295 47.71L80.0697 47.6015L80.068 47.6052L80.295 47.71ZM79.935 58V58.25H80.185V58H79.935ZM75.465 58H75.215V58.25H75.465V58ZM75.465 41.62V41.37H75.215V41.62H75.465ZM78.855 41.62L79.0981 41.5619L79.0523 41.37H78.855V41.62ZM79.515 44.38L79.2719 44.4381L79.3177 44.63H79.515V44.38ZM79.725 44.38V44.63H79.8701L79.9421 44.504L79.725 44.38ZM80.925 42.85L81.098 43.0305L81.098 43.0305L80.925 42.85ZM82.575 41.74L82.4748 41.5109L82.4721 41.5122L82.575 41.74ZM84.615 41.57C84.8279 41.57 85.0821 41.5797 85.3784 41.5994L85.4116 41.1006C85.1079 41.0803 84.8421 41.07 84.615 41.07V41.57ZM85.3784 41.5994C85.6725 41.6191 85.8984 41.648 86.0608 41.684L86.1692 41.196C85.9716 41.152 85.7175 41.1209 85.4116 41.1006L85.3784 41.5994ZM85.8658 41.4204L85.5358 45.6204L86.0342 45.6596L86.3642 41.4596L85.8658 41.4204ZM85.8537 45.3996C85.6882 45.3523 85.4573 45.321 85.1728 45.3006L85.1372 45.7994C85.4127 45.819 85.6018 45.8477 85.7163 45.8804L85.8537 45.3996ZM85.193 45.3029C84.9241 45.2615 84.681 45.24 84.465 45.24V45.74C84.649 45.74 84.8659 45.7585 85.117 45.7971L85.193 45.3029ZM84.465 45.24C83.8617 45.24 83.2777 45.3233 82.714 45.4903L82.856 45.9697C83.3723 45.8167 83.9083 45.74 84.465 45.74V45.24ZM82.7223 45.488C82.1527 45.6357 81.634 45.8789 81.168 46.2178L81.462 46.6222C81.876 46.3211 82.3373 46.1043 82.8477 45.972L82.7223 45.488ZM81.1635 46.2211C80.7081 46.5681 80.3445 47.0309 80.0697 47.6015L80.5203 47.8185C80.7655 47.3091 81.0819 46.9119 81.4665 46.6189L81.1635 46.2211ZM80.068 47.6052C79.8084 48.1677 79.685 48.8562 79.685 49.66H80.185C80.185 48.9038 80.3016 48.2923 80.522 47.8148L80.068 47.6052ZM79.685 49.66V58H80.185V49.66H79.685ZM79.935 57.75H75.465V58.25H79.935V57.75ZM75.715 58V41.62H75.215V58H75.715ZM75.465 41.87H78.855V41.37H75.465V41.87ZM78.6119 41.6781L79.2719 44.4381L79.7581 44.3219L79.0981 41.5619L78.6119 41.6781ZM79.515 44.63H79.725V44.13H79.515V44.63ZM79.9421 44.504C80.2498 43.9655 80.6348 43.4744 81.098 43.0305L80.752 42.6695C80.2552 43.1456 79.8402 43.6745 79.5079 44.256L79.9421 44.504ZM81.098 43.0305C81.557 42.5906 82.0832 42.2364 82.6779 41.9678L82.4721 41.5122C81.8268 41.8036 81.253 42.1894 80.752 42.6695L81.098 43.0305ZM82.6752 41.969C83.2826 41.7033 83.9284 41.57 84.615 41.57V41.07C83.8616 41.07 83.1474 41.2167 82.4748 41.511L82.6752 41.969ZM94.0992 36.91L94.3413 36.9723L94.3683 36.8673L94.3101 36.7758L94.0992 36.91ZM93.4092 39.19L93.6452 39.2726L93.6458 39.2708L93.4092 39.19ZM92.5092 41.62L92.7413 41.7129L92.7421 41.7109L92.5092 41.62ZM91.5192 43.93V44.18H91.6795L91.7464 44.0344L91.5192 43.93ZM88.3092 43.93L88.0658 43.8732L87.9942 44.18H88.3092V43.93ZM89.1192 40.15L88.8746 40.0981L88.8735 40.1039L89.1192 40.15ZM89.4792 38.26L89.2339 38.2109L89.2326 38.2189L89.4792 38.26ZM89.7792 36.58V36.33H89.5647L89.5321 36.542L89.7792 36.58ZM93.8892 36.58L94.1001 36.4458L94.0265 36.33H93.8892V36.58ZM93.8571 36.8477C93.679 37.5404 93.4509 38.2942 93.1726 39.1092L93.6458 39.2708C93.9275 38.4458 94.1595 37.6796 94.3413 36.9723L93.8571 36.8477ZM93.1733 39.1074C92.8943 39.9045 92.5953 40.7118 92.2763 41.5291L92.7421 41.7109C93.0631 40.8882 93.3642 40.0755 93.6452 39.2726L93.1733 39.1074ZM92.2771 41.5272C91.9586 42.3235 91.6302 43.0896 91.292 43.8256L91.7464 44.0344C92.0882 43.2904 92.4199 42.5165 92.7413 41.7128L92.2771 41.5272ZM91.5192 43.68H88.3092V44.18H91.5192V43.68ZM88.5527 43.9868C88.693 43.3856 88.8332 42.7645 88.9734 42.1234L88.485 42.0166C88.3452 42.6555 88.2055 43.2744 88.0658 43.8732L88.5527 43.9868ZM88.9734 42.1234C89.114 41.481 89.2445 40.8385 89.3649 40.1961L88.8735 40.1039C88.754 40.7415 88.6245 41.379 88.485 42.0166L88.9734 42.1234ZM89.3638 40.2019C89.5045 39.5387 89.6252 38.9051 89.7258 38.3011L89.2326 38.2189C89.1333 38.8149 89.014 39.4413 88.8747 40.0981L89.3638 40.2019ZM89.7244 38.309C89.845 37.7059 89.9457 37.1422 90.0263 36.618L89.5321 36.542C89.4528 37.0578 89.3535 37.6141 89.2341 38.211L89.7244 38.309ZM89.7792 36.83H93.8892V36.33H89.7792V36.83ZM93.6783 36.7142L93.8883 37.0442L94.3101 36.7758L94.1001 36.4458L93.6783 36.7142ZM106.535 55.96L106.741 56.1012L106.743 56.0987L106.535 55.96ZM104.195 57.7L104.285 57.9333L104.285 57.9333L104.195 57.7ZM97.3849 58.06L97.4328 57.8146L97.427 57.8136L97.3849 58.06ZM94.9249 57.34H94.6749V57.507L94.8292 57.5709L94.9249 57.34ZM94.9249 53.65L95.0284 53.4224L94.6749 53.2617V53.65H94.9249ZM102.335 54.64L102.194 54.4336L102.189 54.4373L102.335 54.64ZM102.665 52.87L102.454 53.0042L102.458 53.0108L102.463 53.017L102.665 52.87ZM101.705 52.12L101.583 52.3381L101.705 52.12ZM99.3649 51.04L99.2659 51.2696L99.2691 51.2709L99.3649 51.04ZM96.8449 49.75L96.7062 49.9581L96.7107 49.9609L96.8449 49.75ZM95.3749 48.19L95.1527 48.3047L95.1543 48.3076L95.3749 48.19ZM96.6649 42.46L96.8003 42.6702L96.8003 42.6702L96.6649 42.46ZM104.285 41.62L104.232 41.8643L104.232 41.8643L104.285 41.62ZM107.135 42.61L107.365 42.7069L107.458 42.4857L107.241 42.3837L107.135 42.61ZM105.785 45.82L105.683 46.0485L105.916 46.1521L106.015 45.9169L105.785 45.82ZM104.225 45.19L104.14 45.4252L104.14 45.4252L104.225 45.19ZM102.755 44.77L102.702 45.0143L102.704 45.0147L102.755 44.77ZM99.8149 44.89L99.6979 44.669L99.6924 44.6721L99.8149 44.89ZM99.5749 46.42L99.3727 46.567L99.3804 46.5776L99.3891 46.5872L99.5749 46.42ZM100.565 47.08L100.453 47.3036L100.457 47.3054L100.565 47.08ZM102.755 48.04L102.659 48.2708L102.661 48.2718L102.755 48.04ZM105.185 49.24L105.054 49.4527L105.058 49.4555L105.185 49.24ZM106.745 50.77L106.529 50.8956L106.534 50.9038L106.745 50.77ZM107.065 53.14C107.065 54.1994 106.815 55.0891 106.327 55.8213L106.743 56.0987C107.295 55.2709 107.565 54.2806 107.565 53.14H107.065ZM106.329 55.8188C105.843 56.5289 105.108 57.081 104.105 57.4667L104.285 57.9333C105.362 57.519 106.187 56.9111 106.741 56.1012L106.329 55.8188ZM104.105 57.4667C103.102 57.8523 101.845 58.05 100.325 58.05V58.55C101.885 58.55 103.207 58.3477 104.285 57.9333L104.105 57.4667ZM100.325 58.05C99.1956 58.05 98.2325 57.9707 97.4328 57.8146L97.337 58.3054C98.1773 58.4693 99.1742 58.55 100.325 58.55V58.05ZM97.427 57.8136C96.6266 57.6769 95.8246 57.4424 95.0207 57.1091L94.8292 57.5709C95.6653 57.9176 96.5032 58.1631 97.3428 58.3064L97.427 57.8136ZM95.1749 57.34V53.65H94.6749V57.34H95.1749ZM94.8215 53.8776C95.716 54.2842 96.6801 54.6189 97.7132 54.8823L97.8367 54.3977C96.8297 54.1411 95.8938 53.8158 95.0284 53.4224L94.8215 53.8776ZM97.7132 54.8823C98.7468 55.1457 99.6683 55.28 100.475 55.28V54.78C99.7215 54.78 98.843 54.6543 97.8367 54.3977L97.7132 54.8823ZM100.475 55.28C101.364 55.28 102.054 55.1516 102.481 54.8427L102.189 54.4373C101.896 54.6484 101.346 54.78 100.475 54.78V55.28ZM102.476 54.8463C102.916 54.545 103.155 54.1314 103.155 53.62H102.655C102.655 53.9486 102.513 54.215 102.194 54.4337L102.476 54.8463ZM103.155 53.62C103.155 53.2888 103.059 52.987 102.867 52.723L102.463 53.017C102.591 53.193 102.655 53.3912 102.655 53.62H103.155ZM102.876 52.7358C102.7 52.4588 102.33 52.1833 101.827 51.9019L101.583 52.3381C102.08 52.6167 102.35 52.8412 102.454 53.0042L102.876 52.7358ZM101.827 51.9019C101.314 51.6144 100.523 51.2499 99.4608 50.8091L99.2691 51.2709C100.327 51.7101 101.096 52.0656 101.583 52.3381L101.827 51.9019ZM99.4639 50.8104C98.4515 50.3737 97.6244 49.9497 96.9791 49.5391L96.7107 49.9609C97.3855 50.3903 98.2383 50.8263 99.2659 51.2696L99.4639 50.8104ZM96.9836 49.542C96.3522 49.1211 95.8931 48.6303 95.5955 48.0724L95.1543 48.3076C95.4968 48.9497 96.0176 49.4989 96.7062 49.958L96.9836 49.542ZM95.5971 48.0753C95.3003 47.5003 95.1449 46.7723 95.1449 45.88H94.6449C94.6449 46.8277 94.8096 47.6397 95.1528 48.3047L95.5971 48.0753ZM95.1449 45.88C95.1449 44.4366 95.6985 43.3798 96.8003 42.6702L96.5296 42.2498C95.2713 43.0602 94.6449 44.2834 94.6449 45.88H95.1449ZM96.8003 42.6702C97.9269 41.9446 99.4446 41.57 101.375 41.57V41.07C99.3852 41.07 97.7629 41.4554 96.5296 42.2498L96.8003 42.6702ZM101.375 41.57C102.379 41.57 103.331 41.6684 104.232 41.8643L104.338 41.3757C103.399 41.1716 102.411 41.07 101.375 41.07V41.57ZM104.232 41.8643C105.131 42.0598 106.063 42.3831 107.029 42.8363L107.241 42.3837C106.247 41.9169 105.279 41.5802 104.338 41.3757L104.232 41.8643ZM106.904 42.5131L105.554 45.7231L106.015 45.9169L107.365 42.7069L106.904 42.5131ZM105.886 45.5915C105.342 45.3494 104.816 45.137 104.31 44.9548L104.14 45.4252C104.634 45.603 105.148 45.8106 105.683 46.0485L105.886 45.5915ZM104.31 44.9548C103.8 44.7711 103.298 44.6278 102.806 44.5253L102.704 45.0147C103.172 45.1122 103.65 45.2489 104.14 45.4252L104.31 44.9548ZM102.808 44.5257C102.33 44.4217 101.832 44.37 101.315 44.37V44.87C101.798 44.87 102.26 44.9183 102.702 45.0143L102.808 44.5257ZM101.315 44.37C100.64 44.37 100.091 44.4609 99.698 44.6691L99.9319 45.1109C100.219 44.9591 100.67 44.87 101.315 44.87V44.37ZM99.6924 44.6721C99.2956 44.8953 99.0849 45.2475 99.0849 45.7H99.5849C99.5849 45.4325 99.6943 45.2447 99.9375 45.1079L99.6924 44.6721ZM99.0849 45.7C99.0849 46.0154 99.1832 46.3064 99.3727 46.567L99.7771 46.273C99.6466 46.0936 99.5849 45.9046 99.5849 45.7H99.0849ZM99.3891 46.5872C99.6019 46.8237 99.9673 47.0607 100.453 47.3036L100.677 46.8564C100.203 46.6193 99.9079 46.4163 99.7607 46.2528L99.3891 46.5872ZM100.457 47.3054C100.963 47.5483 101.698 47.8703 102.659 48.2708L102.851 47.8092C101.892 47.4097 101.167 47.0917 100.673 46.8546L100.457 47.3054ZM102.661 48.2718C103.591 48.6478 104.388 49.0418 105.054 49.4527L105.316 49.0273C104.622 48.5982 103.798 48.1922 102.849 47.8082L102.661 48.2718ZM105.058 49.4555C105.705 49.8359 106.192 50.3164 106.529 50.8955L106.961 50.6445C106.577 49.9836 106.025 49.4441 105.312 49.0245L105.058 49.4555ZM106.534 50.9038C106.88 51.4513 107.065 52.19 107.065 53.14H107.565C107.565 52.13 107.369 51.2887 106.956 50.6362L106.534 50.9038ZM131.28 58V58.25H131.53V58H131.28ZM118.95 58H118.7V58.25H118.95V58ZM118.95 36.58V36.33H118.7V36.58H118.95ZM131.28 36.58H131.53V36.33H131.28V36.58ZM131.28 40.3V40.55H131.53V40.3H131.28ZM123.48 40.3V40.05H123.23V40.3H123.48ZM123.48 45.01H123.23V45.26H123.48V45.01ZM130.74 45.01H130.99V44.76H130.74V45.01ZM130.74 48.73V48.98H130.99V48.73H130.74ZM123.48 48.73V48.48H123.23V48.73H123.48ZM123.48 54.25H123.23V54.5H123.48V54.25ZM131.28 54.25H131.53V54H131.28V54.25ZM131.28 57.75H118.95V58.25H131.28V57.75ZM119.2 58V36.58H118.7V58H119.2ZM118.95 36.83H131.28V36.33H118.95V36.83ZM131.03 36.58V40.3H131.53V36.58H131.03ZM131.28 40.05H123.48V40.55H131.28V40.05ZM123.23 40.3V45.01H123.73V40.3H123.23ZM123.48 45.26H130.74V44.76H123.48V45.26ZM130.49 45.01V48.73H130.99V45.01H130.49ZM130.74 48.48H123.48V48.98H130.74V48.48ZM123.23 48.73V54.25H123.73V48.73H123.23ZM123.48 54.5H131.28V54H123.48V54.5ZM131.03 54.25V58H131.53V54.25H131.03ZM138.737 49.63L138.945 49.7682L139.037 49.6304L138.946 49.4924L138.737 49.63ZM133.457 41.62V41.37H132.993L133.248 41.7576L133.457 41.62ZM138.527 41.62L138.741 41.4899L138.668 41.37H138.527V41.62ZM141.707 46.84L141.494 46.9701L141.706 47.3189L141.92 46.971L141.707 46.84ZM144.917 41.62V41.37H144.777L144.704 41.489L144.917 41.62ZM149.987 41.62L150.195 41.7587L150.454 41.37H149.987V41.62ZM144.647 49.63L144.439 49.4913L144.347 49.63L144.439 49.7687L144.647 49.63ZM150.227 58V58.25H150.694L150.435 57.8613L150.227 58ZM145.157 58L144.944 58.131L145.017 58.25H145.157V58ZM141.707 52.39L141.92 52.259L141.707 51.9128L141.494 52.259L141.707 52.39ZM138.257 58V58.25H138.397L138.47 58.131L138.257 58ZM133.187 58L132.979 57.8618L132.721 58.25H133.187V58ZM138.946 49.4924L133.666 41.4824L133.248 41.7576L138.528 49.7676L138.946 49.4924ZM133.457 41.87H138.527V41.37H133.457V41.87ZM138.314 41.7501L141.494 46.9701L141.921 46.7099L138.741 41.4899L138.314 41.7501ZM141.92 46.971L145.13 41.751L144.704 41.489L141.494 46.709L141.92 46.971ZM144.917 41.87H149.987V41.37H144.917V41.87ZM149.779 41.4813L144.439 49.4913L144.855 49.7687L150.195 41.7587L149.779 41.4813ZM144.439 49.7687L150.019 58.1387L150.435 57.8613L144.855 49.4913L144.439 49.7687ZM150.227 57.75H145.157V58.25H150.227V57.75ZM145.37 57.869L141.92 52.259L141.494 52.521L144.944 58.131L145.37 57.869ZM141.494 52.259L138.044 57.869L138.47 58.131L141.92 52.521L141.494 52.259ZM138.257 57.75H133.187V58.25H138.257V57.75ZM133.395 58.1382L138.945 49.7682L138.529 49.4918L132.979 57.8618L133.395 58.1382ZM166.311 43.48L166.115 43.6352L166.116 43.6365L166.311 43.48ZM167.211 54.49L167.441 54.5885L167.441 54.5872L167.211 54.49ZM164.991 57.34L164.85 57.1334L164.85 57.1334L164.991 57.34ZM159.681 58L159.597 58.2354L159.599 58.2363L159.681 58ZM158.241 57.22L158.397 57.0248L158.397 57.0248L158.241 57.22ZM157.191 56.2L157.383 56.04L157.308 55.95H157.191V56.2ZM156.951 56.2V55.95H156.643L156.706 56.2515L156.951 56.2ZM157.131 57.4L156.882 57.4237L156.882 57.4249L157.131 57.4ZM157.191 65.2V65.45H157.441V65.2H157.191ZM152.721 65.2H152.471V65.45H152.721V65.2ZM152.721 41.62V41.37H152.471V41.62H152.721ZM156.351 41.62L156.591 41.5491L156.538 41.37H156.351V41.62ZM156.981 43.75L156.741 43.8209L156.794 44H156.981V43.75ZM157.191 43.75V44H157.323L157.397 43.8908L157.191 43.75ZM158.271 42.55L158.434 42.7399L158.439 42.7354L158.271 42.55ZM159.771 41.65L159.685 41.4153L159.682 41.4163L159.771 41.65ZM158.541 45.37L158.398 45.1648L158.398 45.1648L158.541 45.37ZM157.521 46.84L157.284 46.7609L157.282 46.7654L157.521 46.84ZM157.191 49.27L156.941 49.2649V49.27H157.191ZM157.491 52.45L157.25 52.5152L157.25 52.5169L157.491 52.45ZM158.511 54.1L158.666 53.904L158.666 53.904L158.511 54.1ZM162.141 54.1L161.977 53.9108L161.977 53.9108L162.141 54.1ZM163.131 52.42L162.891 52.3488L162.891 52.3488L163.131 52.42ZM162.711 46.12L162.495 46.2463L162.499 46.2525L162.711 46.12ZM161.841 41.57C163.605 41.57 165.022 42.2552 166.115 43.6352L166.507 43.3248C165.319 41.8248 163.757 41.07 161.841 41.07V41.57ZM166.116 43.6365C167.206 44.9941 167.771 47.0284 167.771 49.78H168.271C168.271 46.9716 167.696 44.8059 166.506 43.3235L166.116 43.6365ZM167.771 49.78C167.771 51.6173 167.504 53.1521 166.981 54.3928L167.441 54.5872C167.998 53.2679 168.271 51.6627 168.271 49.78H167.771ZM166.981 54.3915C166.456 55.6168 165.743 56.5252 164.85 57.1334L165.132 57.5466C166.118 56.8748 166.886 55.8832 167.441 54.5885L166.981 54.3915ZM164.85 57.1334C163.955 57.7425 162.915 58.05 161.721 58.05V58.55C163.006 58.55 164.146 58.2175 165.132 57.5466L164.85 57.1334ZM161.721 58.05C160.961 58.05 160.31 57.9525 159.762 57.7637L159.599 58.2363C160.212 58.4475 160.92 58.55 161.721 58.55V58.05ZM159.765 57.7646C159.227 57.5724 158.772 57.3249 158.397 57.0248L158.085 57.4152C158.509 57.7551 159.015 58.0276 159.597 58.2354L159.765 57.7646ZM158.397 57.0248C158.009 56.7143 157.671 56.3859 157.383 56.04L156.999 56.36C157.31 56.7341 157.673 57.0857 158.085 57.4152L158.397 57.0248ZM157.191 55.95H156.951V56.45H157.191V55.95ZM156.706 56.2515C156.784 56.6216 156.843 57.0122 156.882 57.4237L157.38 57.3763C157.339 56.9478 157.278 56.5384 157.195 56.1485L156.706 56.2515ZM156.882 57.4249C156.921 57.8167 156.941 58.2083 156.941 58.6H157.441C157.441 58.1917 157.42 57.7833 157.38 57.3751L156.882 57.4249ZM156.941 58.6V65.2H157.441V58.6H156.941ZM157.191 64.95H152.721V65.45H157.191V64.95ZM152.971 65.2V41.62H152.471V65.2H152.971ZM152.721 41.87H156.351V41.37H152.721V41.87ZM156.111 41.6909L156.741 43.8209L157.221 43.6791L156.591 41.5491L156.111 41.6909ZM156.981 44H157.191V43.5H156.981V44ZM157.397 43.8908C157.685 43.4697 158.03 43.086 158.434 42.7398L158.108 42.3602C157.672 42.734 157.297 43.1503 156.984 43.6092L157.397 43.8908ZM158.439 42.7354C158.833 42.3782 159.306 42.0938 159.86 41.8837L159.682 41.4163C159.076 41.6462 158.548 41.9618 158.103 42.3646L158.439 42.7354ZM159.857 41.8847C160.424 41.6768 161.084 41.57 161.841 41.57V41.07C161.038 41.07 160.318 41.1832 159.685 41.4153L159.857 41.8847ZM160.401 44.64C159.589 44.64 158.914 44.8062 158.398 45.1648L158.684 45.5752C159.088 45.2938 159.653 45.14 160.401 45.14V44.64ZM158.398 45.1648C157.884 45.5223 157.517 46.0624 157.284 46.7609L157.758 46.9191C157.965 46.2976 158.278 45.8577 158.684 45.5752L158.398 45.1648ZM157.282 46.7654C157.073 47.4357 156.961 48.2711 156.941 49.2649L157.441 49.2751C157.461 48.3089 157.569 47.5243 157.759 46.9146L157.282 46.7654ZM156.941 49.27V49.75H157.441V49.27H156.941ZM156.941 49.75C156.941 50.8243 157.042 51.7476 157.25 52.5152L157.732 52.3848C157.54 51.6724 157.441 50.7957 157.441 49.75H156.941ZM157.25 52.5169C157.461 53.2765 157.826 53.8764 158.356 54.296L158.666 53.904C158.236 53.5636 157.921 53.0635 157.732 52.3831L157.25 52.5169ZM158.356 54.296C158.893 54.7212 159.604 54.92 160.461 54.92V54.42C159.678 54.42 159.089 54.2388 158.666 53.904L158.356 54.296ZM160.461 54.92C161.19 54.92 161.811 54.7149 162.304 54.2892L161.977 53.9108C161.59 54.2451 161.092 54.42 160.461 54.42V54.92ZM162.304 54.2892C162.79 53.8693 163.141 53.2624 163.37 52.4912L162.891 52.3488C162.68 53.0576 162.371 53.5707 161.977 53.9108L162.304 54.2892ZM163.37 52.4912C163.599 51.7213 163.711 50.7958 163.711 49.72H163.211C163.211 50.7642 163.102 51.6387 162.891 52.3488L163.37 52.4912ZM163.711 49.72C163.711 48.102 163.46 46.8461 162.923 45.9875L162.499 46.2525C162.962 46.9939 163.211 48.1379 163.211 49.72H163.711ZM162.927 45.9937C162.396 45.087 161.537 44.64 160.401 44.64V45.14C161.384 45.14 162.066 45.513 162.495 46.2463L162.927 45.9937ZM181.635 41.35L181.619 41.5994L181.619 41.5994L181.635 41.35ZM182.355 41.44L182.604 41.4596L182.621 41.2431L182.409 41.196L182.355 41.44ZM182.025 45.64L181.957 45.8804L182.251 45.9644L182.274 45.6596L182.025 45.64ZM181.395 45.55L181.357 45.7971L181.367 45.7986L181.377 45.7994L181.395 45.55ZM179.025 45.73L179.088 45.9721L179.096 45.9697L179.025 45.73ZM177.555 46.42L177.408 46.2178L177.404 46.2211L177.555 46.42ZM176.535 47.71L176.31 47.6015L176.308 47.6052L176.535 47.71ZM176.175 58V58.25H176.425V58H176.175ZM171.705 58H171.455V58.25H171.705V58ZM171.705 41.62V41.37H171.455V41.62H171.705ZM175.095 41.62L175.338 41.5619L175.293 41.37H175.095V41.62ZM175.755 44.38L175.512 44.4381L175.558 44.63H175.755V44.38ZM175.965 44.38V44.63H176.11L176.182 44.504L175.965 44.38ZM177.165 42.85L177.338 43.0305L177.338 43.0305L177.165 42.85ZM178.815 41.74L178.715 41.5109L178.712 41.5122L178.815 41.74ZM180.855 41.57C181.068 41.57 181.322 41.5797 181.619 41.5994L181.652 41.1006C181.348 41.0803 181.082 41.07 180.855 41.07V41.57ZM181.619 41.5994C181.913 41.6191 182.139 41.648 182.301 41.684L182.409 41.196C182.212 41.152 181.958 41.1209 181.652 41.1006L181.619 41.5994ZM182.106 41.4204L181.776 45.6204L182.274 45.6596L182.604 41.4596L182.106 41.4204ZM182.094 45.3996C181.928 45.3523 181.698 45.321 181.413 45.3006L181.377 45.7994C181.653 45.819 181.842 45.8477 181.957 45.8804L182.094 45.3996ZM181.433 45.3029C181.164 45.2615 180.921 45.24 180.705 45.24V45.74C180.889 45.74 181.106 45.7585 181.357 45.7971L181.433 45.3029ZM180.705 45.24C180.102 45.24 179.518 45.3233 178.954 45.4903L179.096 45.9697C179.613 45.8167 180.149 45.74 180.705 45.74V45.24ZM178.962 45.488C178.393 45.6357 177.874 45.8789 177.408 46.2178L177.702 46.6222C178.116 46.3211 178.578 46.1043 179.088 45.972L178.962 45.488ZM177.404 46.2211C176.948 46.5681 176.585 47.0309 176.31 47.6015L176.76 47.8185C177.006 47.3091 177.322 46.9119 177.707 46.6189L177.404 46.2211ZM176.308 47.6052C176.049 48.1677 175.925 48.8562 175.925 49.66H176.425C176.425 48.9038 176.542 48.2923 176.762 47.8148L176.308 47.6052ZM175.925 49.66V58H176.425V49.66H175.925ZM176.175 57.75H171.705V58.25H176.175V57.75ZM171.955 58V41.62H171.455V58H171.955ZM171.705 41.87H175.095V41.37H171.705V41.87ZM174.852 41.6781L175.512 44.4381L175.998 44.3219L175.338 41.5619L174.852 41.6781ZM175.755 44.63H175.965V44.13H175.755V44.63ZM176.182 44.504C176.49 43.9655 176.875 43.4744 177.338 43.0305L176.992 42.6695C176.495 43.1456 176.08 43.6745 175.748 44.256L176.182 44.504ZM177.338 43.0305C177.797 42.5906 178.323 42.2364 178.918 41.9678L178.712 41.5122C178.067 41.8036 177.493 42.1894 176.992 42.6695L177.338 43.0305ZM178.915 41.969C179.523 41.7033 180.169 41.57 180.855 41.57V41.07C180.102 41.07 179.388 41.2167 178.715 41.511L178.915 41.969ZM195.392 42.19L195.274 42.4103L195.276 42.4111L195.392 42.19ZM197.942 44.71L197.723 44.8297L197.723 44.8297L197.942 44.71ZM198.842 50.92V51.17H199.092V50.92H198.842ZM188.282 50.92V50.67H188.024L188.032 50.9279L188.282 50.92ZM189.392 53.89L189.213 54.0643L189.216 54.0668L189.392 53.89ZM195.242 54.67L195.299 54.9136L195.304 54.9122L195.242 54.67ZM197.912 53.68H198.162V53.2833L197.804 53.4545L197.912 53.68ZM197.912 57.13L198.024 57.3536L198.162 57.2845V57.13H197.912ZM195.362 58L195.313 57.7548L195.307 57.7562L195.362 58ZM187.802 57.4L187.692 57.6243L187.695 57.6257L187.802 57.4ZM184.832 54.61L184.616 54.7355L184.616 54.7355L184.832 54.61ZM184.712 45.16L184.49 45.0454L184.489 45.0468L184.712 45.16ZM187.442 42.28L187.322 42.0611L187.322 42.0611L187.442 42.28ZM189.362 45.34L189.189 45.1601L189.186 45.1632L189.362 45.34ZM188.372 47.95L188.123 47.9289L188.1 48.2H188.372V47.95ZM194.642 47.95V48.2H194.892V47.95H194.642ZM194.282 46.18L194.052 46.2775L194.055 46.2848L194.282 46.18ZM193.262 44.95L193.399 44.7406L193.399 44.7406L193.262 44.95ZM191.492 41.57C192.981 41.57 194.238 41.8539 195.274 42.4102L195.511 41.9698C194.387 41.3661 193.044 41.07 191.492 41.07V41.57ZM195.276 42.4111C196.332 42.968 197.146 43.7726 197.723 44.8297L198.162 44.5903C197.538 43.4474 196.653 42.572 195.509 41.9689L195.276 42.4111ZM197.723 44.8297C198.298 45.8842 198.592 47.1905 198.592 48.76H199.092C199.092 47.1295 198.787 45.7358 198.162 44.5903L197.723 44.8297ZM198.592 48.76V50.92H199.092V48.76H198.592ZM198.842 50.67H188.282V51.17H198.842V50.67ZM188.032 50.9279C188.074 52.2337 188.459 53.289 189.213 54.0643L189.572 53.7157C188.925 53.051 188.571 52.1263 188.532 50.9121L188.032 50.9279ZM189.216 54.0668C189.993 54.8443 191.053 55.22 192.362 55.22V54.72C191.152 54.72 190.232 54.3757 189.569 53.7132L189.216 54.0668ZM192.362 55.22C193.438 55.22 194.417 55.1186 195.299 54.9135L195.186 54.4265C194.348 54.6214 193.407 54.72 192.362 54.72V55.22ZM195.304 54.9122C196.182 54.6876 197.088 54.3516 198.02 53.9055L197.804 53.4545C196.897 53.8884 196.022 54.2124 195.18 54.4278L195.304 54.9122ZM197.662 53.68V57.13H198.162V53.68H197.662ZM197.801 56.9064C197.021 57.2962 196.192 57.5791 195.313 57.7549L195.411 58.2451C196.333 58.0609 197.204 57.7638 198.024 57.3536L197.801 56.9064ZM195.307 57.7562C194.451 57.9508 193.4 58.05 192.152 58.05V58.55C193.424 58.55 194.514 58.4492 195.418 58.2438L195.307 57.7562ZM192.152 58.05C190.543 58.05 189.131 57.7557 187.91 57.1743L187.695 57.6257C188.994 58.2443 190.482 58.55 192.152 58.55V58.05ZM187.913 57.1757C186.698 56.5779 185.744 55.6828 185.049 54.4845L184.616 54.7355C185.36 56.0172 186.387 56.9821 187.692 57.6243L187.913 57.1757ZM185.049 54.4845C184.357 53.2927 184.002 51.7793 184.002 49.93H183.502C183.502 51.8407 183.868 53.4473 184.616 54.7355L185.049 54.4845ZM184.002 49.93C184.002 48.0359 184.318 46.4879 184.935 45.2732L184.489 45.0468C183.826 46.3521 183.502 47.9841 183.502 49.93H184.002ZM184.935 45.2746C185.574 44.0346 186.45 43.1129 187.563 42.4989L187.322 42.0611C186.114 42.7271 185.171 43.7254 184.49 45.0454L184.935 45.2746ZM187.563 42.4989C188.681 41.8824 189.988 41.57 191.492 41.57V41.07C189.917 41.07 188.524 41.3976 187.322 42.0611L187.563 42.4989ZM191.522 44.25C190.602 44.25 189.819 44.5519 189.189 45.1601L189.536 45.5198C190.066 45.0081 190.722 44.75 191.522 44.75V44.25ZM189.186 45.1632C188.567 45.7813 188.226 46.7182 188.123 47.9289L188.621 47.9711C188.719 46.8218 189.037 46.0187 189.539 45.5168L189.186 45.1632ZM188.372 48.2H194.642V47.7H188.372V48.2ZM194.892 47.95C194.892 47.2593 194.767 46.6327 194.509 46.0752L194.055 46.2848C194.278 46.7673 194.392 47.3207 194.392 47.95H194.892ZM194.513 46.0826C194.274 45.5181 193.902 45.0686 193.399 44.7406L193.126 45.1594C193.543 45.4314 193.851 45.8019 194.052 46.2774L194.513 46.0826ZM193.399 44.7406C192.888 44.4077 192.258 44.25 191.522 44.25V44.75C192.187 44.75 192.716 44.8923 193.126 45.1594L193.399 44.7406ZM213.117 55.96L213.323 56.1012L213.325 56.0987L213.117 55.96ZM210.777 57.7L210.867 57.9333L210.867 57.9333L210.777 57.7ZM203.967 58.06L204.015 57.8146L204.009 57.8136L203.967 58.06ZM201.507 57.34H201.257V57.507L201.411 57.5709L201.507 57.34ZM201.507 53.65L201.61 53.4224L201.257 53.2617V53.65H201.507ZM208.917 54.64L208.776 54.4336L208.771 54.4373L208.917 54.64ZM209.247 52.87L209.036 53.0042L209.04 53.0108L209.045 53.017L209.247 52.87ZM208.287 52.12L208.165 52.3381L208.287 52.12ZM205.947 51.04L205.848 51.2696L205.851 51.2709L205.947 51.04ZM203.427 49.75L203.288 49.9581L203.293 49.9609L203.427 49.75ZM201.957 48.19L201.735 48.3047L201.736 48.3076L201.957 48.19ZM203.247 42.46L203.382 42.6702L203.382 42.6702L203.247 42.46ZM210.867 41.62L210.814 41.8643L210.814 41.8643L210.867 41.62ZM213.717 42.61L213.947 42.7069L214.04 42.4857L213.823 42.3837L213.717 42.61ZM212.367 45.82L212.265 46.0485L212.499 46.1521L212.597 45.9169L212.367 45.82ZM210.807 45.19L210.722 45.4252L210.722 45.4252L210.807 45.19ZM209.337 44.77L209.284 45.0143L209.286 45.0147L209.337 44.77ZM206.397 44.89L206.28 44.669L206.274 44.6721L206.397 44.89ZM206.157 46.42L205.955 46.567L205.962 46.5776L205.971 46.5872L206.157 46.42ZM207.147 47.08L207.035 47.3036L207.039 47.3054L207.147 47.08ZM209.337 48.04L209.241 48.2708L209.243 48.2718L209.337 48.04ZM211.767 49.24L211.636 49.4527L211.64 49.4555L211.767 49.24ZM213.327 50.77L213.111 50.8956L213.116 50.9038L213.327 50.77ZM213.647 53.14C213.647 54.1994 213.397 55.0891 212.909 55.8213L213.325 56.0987C213.877 55.2709 214.147 54.2806 214.147 53.14H213.647ZM212.911 55.8188C212.425 56.5289 211.69 57.081 210.687 57.4667L210.867 57.9333C211.944 57.519 212.769 56.9111 213.323 56.1012L212.911 55.8188ZM210.687 57.4667C209.685 57.8523 208.427 58.05 206.907 58.05V58.55C208.467 58.55 209.789 58.3477 210.867 57.9333L210.687 57.4667ZM206.907 58.05C205.778 58.05 204.815 57.9707 204.015 57.8146L203.919 58.3054C204.759 58.4693 205.756 58.55 206.907 58.55V58.05ZM204.009 57.8136C203.209 57.6769 202.407 57.4424 201.603 57.1091L201.411 57.5709C202.247 57.9176 203.085 58.1631 203.925 58.3064L204.009 57.8136ZM201.757 57.34V53.65H201.257V57.34H201.757ZM201.404 53.8776C202.298 54.2842 203.262 54.6189 204.295 54.8823L204.419 54.3977C203.412 54.1411 202.476 53.8158 201.61 53.4224L201.404 53.8776ZM204.295 54.8823C205.329 55.1457 206.25 55.28 207.057 55.28V54.78C206.304 54.78 205.425 54.6543 204.419 54.3977L204.295 54.8823ZM207.057 55.28C207.946 55.28 208.636 55.1516 209.063 54.8427L208.771 54.4373C208.478 54.6484 207.928 54.78 207.057 54.78V55.28ZM209.058 54.8463C209.499 54.545 209.737 54.1314 209.737 53.62H209.237C209.237 53.9486 209.095 54.215 208.776 54.4337L209.058 54.8463ZM209.737 53.62C209.737 53.2888 209.641 52.987 209.449 52.723L209.045 53.017C209.173 53.193 209.237 53.3912 209.237 53.62H209.737ZM209.458 52.7358C209.282 52.4588 208.912 52.1833 208.409 51.9019L208.165 52.3381C208.662 52.6167 208.932 52.8412 209.036 53.0042L209.458 52.7358ZM208.409 51.9019C207.896 51.6144 207.105 51.2499 206.043 50.8091L205.851 51.2709C206.909 51.7101 207.678 52.0656 208.165 52.3381L208.409 51.9019ZM206.046 50.8104C205.034 50.3737 204.206 49.9497 203.561 49.5391L203.293 49.9609C203.968 50.3903 204.82 50.8263 205.848 51.2696L206.046 50.8104ZM203.566 49.542C202.934 49.1211 202.475 48.6303 202.178 48.0724L201.736 48.3076C202.079 48.9497 202.6 49.4989 203.288 49.958L203.566 49.542ZM202.179 48.0753C201.882 47.5003 201.727 46.7723 201.727 45.88H201.227C201.227 46.8277 201.392 47.6397 201.735 48.3047L202.179 48.0753ZM201.727 45.88C201.727 44.4366 202.281 43.3798 203.382 42.6702L203.112 42.2498C201.853 43.0602 201.227 44.2834 201.227 45.88H201.727ZM203.382 42.6702C204.509 41.9446 206.027 41.57 207.957 41.57V41.07C205.967 41.07 204.345 41.4554 203.112 42.2498L203.382 42.6702ZM207.957 41.57C208.961 41.57 209.913 41.6684 210.814 41.8643L210.92 41.3757C209.981 41.1716 208.993 41.07 207.957 41.07V41.57ZM210.814 41.8643C211.713 42.0598 212.645 42.3831 213.611 42.8363L213.823 42.3837C212.829 41.9169 211.861 41.5802 210.92 41.3757L210.814 41.8643ZM213.487 42.5131L212.137 45.7231L212.597 45.9169L213.947 42.7069L213.487 42.5131ZM212.468 45.5915C211.924 45.3494 211.398 45.137 210.892 44.9548L210.722 45.4252C211.216 45.603 211.73 45.8106 212.265 46.0485L212.468 45.5915ZM210.892 44.9548C210.382 44.7711 209.88 44.6278 209.388 44.5253L209.286 45.0147C209.754 45.1122 210.232 45.2489 210.722 45.4252L210.892 44.9548ZM209.39 44.5257C208.912 44.4217 208.414 44.37 207.897 44.37V44.87C208.38 44.87 208.842 44.9183 209.284 45.0143L209.39 44.5257ZM207.897 44.37C207.222 44.37 206.673 44.4609 206.28 44.6691L206.514 45.1109C206.801 44.9591 207.252 44.87 207.897 44.87V44.37ZM206.274 44.6721C205.878 44.8953 205.667 45.2475 205.667 45.7H206.167C206.167 45.4325 206.276 45.2447 206.52 45.1079L206.274 44.6721ZM205.667 45.7C205.667 46.0154 205.765 46.3064 205.955 46.567L206.359 46.273C206.229 46.0936 206.167 45.9046 206.167 45.7H205.667ZM205.971 46.5872C206.184 46.8237 206.549 47.0607 207.035 47.3036L207.259 46.8564C206.785 46.6193 206.49 46.4163 206.343 46.2528L205.971 46.5872ZM207.039 47.3054C207.545 47.5483 208.28 47.8703 209.241 48.2708L209.433 47.8092C208.474 47.4097 207.749 47.0917 207.255 46.8546L207.039 47.3054ZM209.243 48.2718C210.173 48.6478 210.97 49.0418 211.636 49.4527L211.898 49.0273C211.204 48.5982 210.38 48.1922 209.431 47.8082L209.243 48.2718ZM211.64 49.4555C212.287 49.8359 212.774 50.3164 213.111 50.8955L213.543 50.6445C213.159 49.9836 212.607 49.4441 211.894 49.0245L211.64 49.4555ZM213.116 50.9038C213.463 51.4513 213.647 52.19 213.647 53.14H214.147C214.147 52.13 213.951 51.2887 213.538 50.6362L213.116 50.9038ZM228.029 55.96L228.235 56.1012L228.237 56.0987L228.029 55.96ZM225.689 57.7L225.779 57.9333L225.779 57.9333L225.689 57.7ZM218.879 58.06L218.927 57.8146L218.921 57.8136L218.879 58.06ZM216.419 57.34H216.169V57.507L216.323 57.5709L216.419 57.34ZM216.419 53.65L216.523 53.4224L216.169 53.2617V53.65H216.419ZM223.829 54.64L223.688 54.4336L223.683 54.4373L223.829 54.64ZM224.159 52.87L223.948 53.0042L223.952 53.0108L223.957 53.017L224.159 52.87ZM223.199 52.12L223.077 52.3381L223.199 52.12ZM220.859 51.04L220.76 51.2696L220.763 51.2709L220.859 51.04ZM218.339 49.75L218.2 49.9581L218.205 49.9609L218.339 49.75ZM216.869 48.19L216.647 48.3047L216.648 48.3076L216.869 48.19ZM218.159 42.46L218.294 42.6702L218.294 42.6702L218.159 42.46ZM225.779 41.62L225.726 41.8643L225.726 41.8643L225.779 41.62ZM228.629 42.61L228.86 42.7069L228.953 42.4857L228.735 42.3837L228.629 42.61ZM227.279 45.82L227.178 46.0485L227.411 46.1521L227.51 45.9169L227.279 45.82ZM225.719 45.19L225.634 45.4252L225.634 45.4252L225.719 45.19ZM224.249 44.77L224.196 45.0143L224.198 45.0147L224.249 44.77ZM221.309 44.89L221.192 44.669L221.186 44.6721L221.309 44.89ZM221.069 46.42L220.867 46.567L220.875 46.5776L220.883 46.5872L221.069 46.42ZM222.059 47.08L221.947 47.3036L221.951 47.3054L222.059 47.08ZM224.249 48.04L224.153 48.2708L224.155 48.2718L224.249 48.04ZM226.679 49.24L226.548 49.4527L226.552 49.4555L226.679 49.24ZM228.239 50.77L228.023 50.8956L228.028 50.9038L228.239 50.77ZM228.559 53.14C228.559 54.1994 228.309 55.0891 227.821 55.8213L228.237 56.0987C228.789 55.2709 229.059 54.2806 229.059 53.14H228.559ZM227.823 55.8188C227.337 56.5289 226.602 57.081 225.599 57.4667L225.779 57.9333C226.856 57.519 227.681 56.9111 228.235 56.1012L227.823 55.8188ZM225.599 57.4667C224.597 57.8523 223.339 58.05 221.819 58.05V58.55C223.379 58.55 224.702 58.3477 225.779 57.9333L225.599 57.4667ZM221.819 58.05C220.69 58.05 219.727 57.9707 218.927 57.8146L218.831 58.3054C219.671 58.4693 220.668 58.55 221.819 58.55V58.05ZM218.921 57.8136C218.121 57.6769 217.319 57.4424 216.515 57.1091L216.323 57.5709C217.159 57.9176 217.997 58.1631 218.837 58.3064L218.921 57.8136ZM216.669 57.34V53.65H216.169V57.34H216.669ZM216.316 53.8776C217.21 54.2842 218.174 54.6189 219.207 54.8823L219.331 54.3977C218.324 54.1411 217.388 53.8158 216.523 53.4224L216.316 53.8776ZM219.207 54.8823C220.241 55.1457 221.162 55.28 221.969 55.28V54.78C221.216 54.78 220.337 54.6543 219.331 54.3977L219.207 54.8823ZM221.969 55.28C222.858 55.28 223.548 55.1516 223.975 54.8427L223.683 54.4373C223.39 54.6484 222.84 54.78 221.969 54.78V55.28ZM223.97 54.8463C224.411 54.545 224.649 54.1314 224.649 53.62H224.149C224.149 53.9486 224.007 54.215 223.688 54.4337L223.97 54.8463ZM224.649 53.62C224.649 53.2888 224.553 52.987 224.361 52.723L223.957 53.017C224.085 53.193 224.149 53.3912 224.149 53.62H224.649ZM224.37 52.7358C224.194 52.4588 223.824 52.1833 223.321 51.9019L223.077 52.3381C223.574 52.6167 223.844 52.8412 223.948 53.0042L224.37 52.7358ZM223.321 51.9019C222.808 51.6144 222.017 51.2499 220.955 50.8091L220.763 51.2709C221.821 51.7101 222.59 52.0656 223.077 52.3381L223.321 51.9019ZM220.958 50.8104C219.946 50.3737 219.118 49.9497 218.473 49.5391L218.205 49.9609C218.88 50.3903 219.732 50.8263 220.76 51.2696L220.958 50.8104ZM218.478 49.542C217.846 49.1211 217.387 48.6303 217.09 48.0724L216.648 48.3076C216.991 48.9497 217.512 49.4989 218.2 49.958L218.478 49.542ZM217.091 48.0753C216.794 47.5003 216.639 46.7723 216.639 45.88H216.139C216.139 46.8277 216.304 47.6397 216.647 48.3047L217.091 48.0753ZM216.639 45.88C216.639 44.4366 217.193 43.3798 218.294 42.6702L218.024 42.2498C216.765 43.0602 216.139 44.2834 216.139 45.88H216.639ZM218.294 42.6702C219.421 41.9446 220.939 41.57 222.869 41.57V41.07C220.879 41.07 219.257 41.4554 218.024 42.2498L218.294 42.6702ZM222.869 41.57C223.873 41.57 224.825 41.6684 225.726 41.8643L225.832 41.3757C224.893 41.1716 223.905 41.07 222.869 41.07V41.57ZM225.726 41.8643C226.625 42.0598 227.557 42.3831 228.523 42.8363L228.735 42.3837C227.741 41.9169 226.773 41.5802 225.832 41.3757L225.726 41.8643ZM228.399 42.5131L227.049 45.7231L227.51 45.9169L228.86 42.7069L228.399 42.5131ZM227.381 45.5915C226.836 45.3494 226.31 45.137 225.804 44.9548L225.634 45.4252C226.128 45.603 226.642 45.8106 227.178 46.0485L227.381 45.5915ZM225.804 44.9548C225.294 44.7711 224.792 44.6278 224.3 44.5253L224.198 45.0147C224.666 45.1122 225.144 45.2489 225.634 45.4252L225.804 44.9548ZM224.302 44.5257C223.824 44.4217 223.326 44.37 222.809 44.37V44.87C223.292 44.87 223.754 44.9183 224.196 45.0143L224.302 44.5257ZM222.809 44.37C222.134 44.37 221.585 44.4609 221.192 44.6691L221.426 45.1109C221.713 44.9591 222.164 44.87 222.809 44.87V44.37ZM221.186 44.6721C220.79 44.8953 220.579 45.2475 220.579 45.7H221.079C221.079 45.4325 221.188 45.2447 221.432 45.1079L221.186 44.6721ZM220.579 45.7C220.579 46.0154 220.677 46.3064 220.867 46.567L221.271 46.273C221.141 46.0936 221.079 45.9046 221.079 45.7H220.579ZM220.883 46.5872C221.096 46.8237 221.461 47.0607 221.947 47.3036L222.171 46.8564C221.697 46.6193 221.402 46.4163 221.255 46.2528L220.883 46.5872ZM221.951 47.3054C222.457 47.5483 223.192 47.8703 224.153 48.2708L224.345 47.8092C223.386 47.4097 222.661 47.0917 222.167 46.8546L221.951 47.3054ZM224.155 48.2718C225.086 48.6478 225.882 49.0418 226.548 49.4527L226.81 49.0273C226.116 48.5982 225.293 48.1922 224.343 47.8082L224.155 48.2718ZM226.552 49.4555C227.199 49.8359 227.687 50.3164 228.023 50.8955L228.455 50.6445C228.072 49.9836 227.519 49.4441 226.806 49.0245L226.552 49.4555ZM228.028 50.9038C228.375 51.4513 228.559 52.19 228.559 53.14H229.059C229.059 52.13 228.864 51.2887 228.45 50.6362L228.028 50.9038Z" fill="black"/>
<defs>
<linearGradient id="paint0_linear_2_18" x1="193.227" y1="20.3458" x2="16.8346" y2="7.19256" gradientUnits="userSpaceOnUse">
<stop stop-color="#E0BD23"/>
<stop offset="1" stop-color="#F89A0E"/>
</linearGradient>
</defs>
</svg>
